<svg width="30" height="33" viewBox="0 0 30 33" fill="none" xmlns="http://www.w3.org/2000/svg">
<path fill-rule="evenodd" clip-rule="evenodd" d="M26.3579 16.3193C16.4148 16.3193 16.4148 22.241 16.4148 25.7258C16.4148 29.2106 19.6345 31.2813 21.2443 31.8811L5.33213 32.0964C2.53188 32.1343 0.23546 29.8865 0.213475 27.0861L0.0352934 4.39022C0.0163018 1.97117 1.97205 0 4.39119 0H22.0019C24.4077 0 26.3579 1.95026 26.3579 4.35603V16.3193ZM6.18721 8.68042C5.38529 8.68042 4.7352 9.33051 4.7352 10.1324C4.7352 10.9344 5.38529 11.5844 6.18721 11.5844H20.7704C21.5723 11.5844 22.2224 10.9344 22.2224 10.1324C22.2224 9.33051 21.5723 8.68042 20.7704 8.68042H6.18721ZM4.7352 16.2562C4.7352 15.4543 5.38529 14.8042 6.18721 14.8042H17.6139C18.4158 14.8042 19.0659 15.4543 19.0659 16.2562C19.0659 17.0581 18.4158 17.7082 17.6139 17.7082H6.18721C5.38529 17.7082 4.7352 17.0581 4.7352 16.2562ZM6.18721 20.9279C5.38529 20.9279 4.7352 21.5779 4.7352 22.3799C4.7352 23.1818 5.38529 23.8319 6.18721 23.8319H14.4573C15.2593 23.8319 15.9094 23.1818 15.9094 22.3799C15.9094 21.5779 15.2593 20.9279 14.4573 20.9279H6.18721Z" fill="white"/>
<path fill-rule="evenodd" clip-rule="evenodd" d="M24 30C27.3137 30 30 27.3137 30 24C30 20.6863 27.3137 18 24 18C20.6863 18 18 20.6863 18 24C18 27.3137 20.6863 30 24 30ZM19.8613 24.3091L21.1534 22.3074C21.9087 22.6781 22.7845 23.8646 23.1279 24.4116C24.9273 22.4318 27.3319 21.4025 28.3092 21.1354C25.9181 22.7612 23.6711 25.8351 22.8465 27.1688C22.1544 25.4238 20.568 24.5353 19.8613 24.3091Z" fill="white"/>
</svg>
