<svg width="1092" height="535" viewBox="0 0 1092 535" fill="none" xmlns="http://www.w3.org/2000/svg">
<g filter="url(#filter0_d_3969_13174)">
<rect x="25" y="26" width="1041" height="483" rx="7" fill="#FEFFFF"/>
<path d="M47.57 116.4V115.155H50.39V126H49.01V116.4H47.57ZM52.0597 120.465C52.0597 118.745 52.3397 117.405 52.8997 116.445C53.4597 115.475 54.4397 114.99 55.8397 114.99C57.2297 114.99 58.2047 115.475 58.7647 116.445C59.3247 117.405 59.6047 118.745 59.6047 120.465C59.6047 122.215 59.3247 123.575 58.7647 124.545C58.2047 125.515 57.2297 126 55.8397 126C54.4397 126 53.4597 125.515 52.8997 124.545C52.3397 123.575 52.0597 122.215 52.0597 120.465ZM58.2547 120.465C58.2547 119.595 58.1947 118.86 58.0747 118.26C57.9647 117.65 57.7297 117.16 57.3697 116.79C57.0197 116.42 56.5097 116.235 55.8397 116.235C55.1597 116.235 54.6397 116.42 54.2797 116.79C53.9297 117.16 53.6947 117.65 53.5747 118.26C53.4647 118.86 53.4097 119.595 53.4097 120.465C53.4097 121.365 53.4647 122.12 53.5747 122.73C53.6947 123.34 53.9297 123.83 54.2797 124.2C54.6397 124.57 55.1597 124.755 55.8397 124.755C56.5097 124.755 57.0197 124.57 57.3697 124.2C57.7297 123.83 57.9647 123.34 58.0747 122.73C58.1947 122.12 58.2547 121.365 58.2547 120.465ZM60.8036 120.465C60.8036 118.745 61.0836 117.405 61.6436 116.445C62.2036 115.475 63.1836 114.99 64.5836 114.99C65.9736 114.99 66.9486 115.475 67.5086 116.445C68.0686 117.405 68.3486 118.745 68.3486 120.465C68.3486 122.215 68.0686 123.575 67.5086 124.545C66.9486 125.515 65.9736 126 64.5836 126C63.1836 126 62.2036 125.515 61.6436 124.545C61.0836 123.575 60.8036 122.215 60.8036 120.465ZM66.9986 120.465C66.9986 119.595 66.9386 118.86 66.8186 118.26C66.7086 117.65 66.4736 117.16 66.1136 116.79C65.7636 116.42 65.2536 116.235 64.5836 116.235C63.9036 116.235 63.3836 116.42 63.0236 116.79C62.6736 117.16 62.4386 117.65 62.3186 118.26C62.2086 118.86 62.1536 119.595 62.1536 120.465C62.1536 121.365 62.2086 122.12 62.3186 122.73C62.4386 123.34 62.6736 123.83 63.0236 124.2C63.3836 124.57 63.9036 124.755 64.5836 124.755C65.2536 124.755 65.7636 124.57 66.1136 124.2C66.4736 123.83 66.7086 123.34 66.8186 122.73C66.9386 122.12 66.9986 121.365 66.9986 120.465Z" fill="#606060"/>
<path d="M53.91 179.36C53.35 179.14 52.92 178.82 52.62 178.4C52.32 177.98 52.17 177.47 52.17 176.87C52.17 176.33 52.305 175.845 52.575 175.415C52.845 174.975 53.245 174.63 53.775 174.38C54.315 174.12 54.965 173.99 55.725 173.99C56.485 173.99 57.13 174.12 57.66 174.38C58.2 174.63 58.605 174.975 58.875 175.415C59.155 175.845 59.295 176.33 59.295 176.87C59.295 177.45 59.14 177.96 58.83 178.4C58.52 178.83 58.095 179.15 57.555 179.36C58.175 179.55 58.665 179.885 59.025 180.365C59.395 180.835 59.58 181.405 59.58 182.075C59.58 182.725 59.42 183.295 59.1 183.785C58.78 184.265 58.325 184.64 57.735 184.91C57.155 185.17 56.485 185.3 55.725 185.3C54.965 185.3 54.295 185.17 53.715 184.91C53.145 184.64 52.7 184.265 52.38 183.785C52.06 183.295 51.9 182.725 51.9 182.075C51.9 181.405 52.08 180.83 52.44 180.35C52.8 179.87 53.29 179.54 53.91 179.36ZM57.975 177.035C57.975 176.425 57.775 175.955 57.375 175.625C56.975 175.295 56.425 175.13 55.725 175.13C55.035 175.13 54.49 175.295 54.09 175.625C53.69 175.955 53.49 176.43 53.49 177.05C53.49 177.61 53.695 178.06 54.105 178.4C54.525 178.74 55.065 178.91 55.725 178.91C56.395 178.91 56.935 178.74 57.345 178.4C57.765 178.05 57.975 177.595 57.975 177.035ZM55.725 179.96C54.985 179.96 54.38 180.135 53.91 180.485C53.44 180.825 53.205 181.34 53.205 182.03C53.205 182.67 53.43 183.185 53.88 183.575C54.34 183.965 54.955 184.16 55.725 184.16C56.495 184.16 57.105 183.965 57.555 183.575C58.005 183.185 58.23 182.67 58.23 182.03C58.23 181.36 58 180.85 57.54 180.5C57.08 180.14 56.475 179.96 55.725 179.96ZM60.7179 179.465C60.7179 177.745 60.9979 176.405 61.5579 175.445C62.1179 174.475 63.0979 173.99 64.4979 173.99C65.8879 173.99 66.8629 174.475 67.4229 175.445C67.9829 176.405 68.2629 177.745 68.2629 179.465C68.2629 181.215 67.9829 182.575 67.4229 183.545C66.8629 184.515 65.8879 185 64.4979 185C63.0979 185 62.1179 184.515 61.5579 183.545C60.9979 182.575 60.7179 181.215 60.7179 179.465ZM66.9129 179.465C66.9129 178.595 66.8529 177.86 66.7329 177.26C66.6229 176.65 66.3879 176.16 66.0279 175.79C65.6779 175.42 65.1679 175.235 64.4979 175.235C63.8179 175.235 63.2979 175.42 62.9379 175.79C62.5879 176.16 62.3529 176.65 62.2329 177.26C62.1229 177.86 62.0679 178.595 62.0679 179.465C62.0679 180.365 62.1229 181.12 62.2329 181.73C62.3529 182.34 62.5879 182.83 62.9379 183.2C63.2979 183.57 63.8179 183.755 64.4979 183.755C65.1679 183.755 65.6779 183.57 66.0279 183.2C66.3879 182.83 66.6229 182.34 66.7329 181.73C66.8529 181.12 66.9129 180.365 66.9129 179.465Z" fill="#606060"/>
<path d="M57.975 235.735C57.755 234.625 57.07 234.07 55.92 234.07C55.03 234.07 54.365 234.415 53.925 235.105C53.485 235.785 53.27 236.91 53.28 238.48C53.51 237.96 53.89 237.555 54.42 237.265C54.96 236.965 55.56 236.815 56.22 236.815C57.25 236.815 58.07 237.135 58.68 237.775C59.3 238.415 59.61 239.3 59.61 240.43C59.61 241.11 59.475 241.72 59.205 242.26C58.945 242.8 58.545 243.23 58.005 243.55C57.475 243.87 56.83 244.03 56.07 244.03C55.04 244.03 54.235 243.8 53.655 243.34C53.075 242.88 52.67 242.245 52.44 241.435C52.21 240.625 52.095 239.625 52.095 238.435C52.095 234.765 53.375 232.93 55.935 232.93C56.915 232.93 57.685 233.195 58.245 233.725C58.805 234.255 59.135 234.925 59.235 235.735H57.975ZM55.935 237.97C55.505 237.97 55.1 238.06 54.72 238.24C54.34 238.41 54.03 238.675 53.79 239.035C53.56 239.385 53.445 239.815 53.445 240.325C53.445 241.085 53.665 241.705 54.105 242.185C54.545 242.655 55.175 242.89 55.995 242.89C56.695 242.89 57.25 242.675 57.66 242.245C58.08 241.805 58.29 241.215 58.29 240.475C58.29 239.695 58.09 239.085 57.69 238.645C57.29 238.195 56.705 237.97 55.935 237.97ZM60.7765 238.465C60.7765 236.745 61.0565 235.405 61.6165 234.445C62.1765 233.475 63.1565 232.99 64.5565 232.99C65.9465 232.99 66.9215 233.475 67.4815 234.445C68.0415 235.405 68.3215 236.745 68.3215 238.465C68.3215 240.215 68.0415 241.575 67.4815 242.545C66.9215 243.515 65.9465 244 64.5565 244C63.1565 244 62.1765 243.515 61.6165 242.545C61.0565 241.575 60.7765 240.215 60.7765 238.465ZM66.9715 238.465C66.9715 237.595 66.9115 236.86 66.7915 236.26C66.6815 235.65 66.4465 235.16 66.0865 234.79C65.7365 234.42 65.2265 234.235 64.5565 234.235C63.8765 234.235 63.3565 234.42 62.9965 234.79C62.6465 235.16 62.4115 235.65 62.2915 236.26C62.1815 236.86 62.1265 237.595 62.1265 238.465C62.1265 239.365 62.1815 240.12 62.2915 240.73C62.4115 241.34 62.6465 241.83 62.9965 242.2C63.3565 242.57 63.8765 242.755 64.5565 242.755C65.2265 242.755 65.7365 242.57 66.0865 242.2C66.4465 241.83 66.6815 241.34 66.7915 240.73C66.9115 240.12 66.9715 239.365 66.9715 238.465Z" fill="#606060"/>
<path d="M51.6 300.585V299.55L56.865 292.26H58.5V299.4H60V300.585H58.5V303H57.15V300.585H51.6ZM57.21 293.685L53.175 299.4H57.21V293.685ZM60.6886 297.465C60.6886 295.745 60.9686 294.405 61.5286 293.445C62.0886 292.475 63.0686 291.99 64.4686 291.99C65.8586 291.99 66.8336 292.475 67.3936 293.445C67.9536 294.405 68.2336 295.745 68.2336 297.465C68.2336 299.215 67.9536 300.575 67.3936 301.545C66.8336 302.515 65.8586 303 64.4686 303C63.0686 303 62.0886 302.515 61.5286 301.545C60.9686 300.575 60.6886 299.215 60.6886 297.465ZM66.8836 297.465C66.8836 296.595 66.8236 295.86 66.7036 295.26C66.5936 294.65 66.3586 294.16 65.9986 293.79C65.6486 293.42 65.1386 293.235 64.4686 293.235C63.7886 293.235 63.2686 293.42 62.9086 293.79C62.5586 294.16 62.3236 294.65 62.2036 295.26C62.0936 295.86 62.0386 296.595 62.0386 297.465C62.0386 298.365 62.0936 299.12 62.2036 299.73C62.3236 300.34 62.5586 300.83 62.9086 301.2C63.2686 301.57 63.7886 301.755 64.4686 301.755C65.1386 301.755 65.6486 301.57 65.9986 301.2C66.3586 300.83 66.5936 300.34 66.7036 299.73C66.8236 299.12 66.8836 298.365 66.8836 297.465Z" fill="#606060"/>
<path d="M52.765 360.905C54.035 359.885 55.03 359.05 55.75 358.4C56.47 357.74 57.075 357.055 57.565 356.345C58.065 355.625 58.315 354.92 58.315 354.23C58.315 353.58 58.155 353.07 57.835 352.7C57.525 352.32 57.02 352.13 56.32 352.13C55.64 352.13 55.11 352.345 54.73 352.775C54.36 353.195 54.16 353.76 54.13 354.47H52.81C52.85 353.35 53.19 352.485 53.83 351.875C54.47 351.265 55.295 350.96 56.305 350.96C57.335 350.96 58.15 351.245 58.75 351.815C59.36 352.385 59.665 353.17 59.665 354.17C59.665 355 59.415 355.81 58.915 356.6C58.425 357.38 57.865 358.07 57.235 358.67C56.605 359.26 55.8 359.95 54.82 360.74H59.98V361.88H52.765V360.905ZM60.8829 356.465C60.8829 354.745 61.1629 353.405 61.7229 352.445C62.2829 351.475 63.2629 350.99 64.6629 350.99C66.0529 350.99 67.0279 351.475 67.5879 352.445C68.1479 353.405 68.4279 354.745 68.4279 356.465C68.4279 358.215 68.1479 359.575 67.5879 360.545C67.0279 361.515 66.0529 362 64.6629 362C63.2629 362 62.2829 361.515 61.7229 360.545C61.1629 359.575 60.8829 358.215 60.8829 356.465ZM67.0779 356.465C67.0779 355.595 67.0179 354.86 66.8979 354.26C66.7879 353.65 66.5529 353.16 66.1929 352.79C65.8429 352.42 65.3329 352.235 64.6629 352.235C63.9829 352.235 63.4629 352.42 63.1029 352.79C62.7529 353.16 62.5179 353.65 62.3979 354.26C62.2879 354.86 62.2329 355.595 62.2329 356.465C62.2329 357.365 62.2879 358.12 62.3979 358.73C62.5179 359.34 62.7529 359.83 63.1029 360.2C63.4629 360.57 63.9829 360.755 64.6629 360.755C65.3329 360.755 65.8429 360.57 66.1929 360.2C66.5529 359.83 66.7879 359.34 66.8979 358.73C67.0179 358.12 67.0779 357.365 67.0779 356.465Z" fill="#606060"/>
<path d="M60.93 415.465C60.93 413.745 61.21 412.405 61.77 411.445C62.33 410.475 63.31 409.99 64.71 409.99C66.1 409.99 67.075 410.475 67.635 411.445C68.195 412.405 68.475 413.745 68.475 415.465C68.475 417.215 68.195 418.575 67.635 419.545C67.075 420.515 66.1 421 64.71 421C63.31 421 62.33 420.515 61.77 419.545C61.21 418.575 60.93 417.215 60.93 415.465ZM67.125 415.465C67.125 414.595 67.065 413.86 66.945 413.26C66.835 412.65 66.6 412.16 66.24 411.79C65.89 411.42 65.38 411.235 64.71 411.235C64.03 411.235 63.51 411.42 63.15 411.79C62.8 412.16 62.565 412.65 62.445 413.26C62.335 413.86 62.28 414.595 62.28 415.465C62.28 416.365 62.335 417.12 62.445 417.73C62.565 418.34 62.8 418.83 63.15 419.2C63.51 419.57 64.03 419.755 64.71 419.755C65.38 419.755 65.89 419.57 66.24 419.2C66.6 418.83 66.835 418.34 66.945 417.73C67.065 417.12 67.125 416.365 67.125 415.465Z" fill="#606060"/>
<line x1="75" y1="390.5" x2="1010" y2="390.5" stroke="#BFBFBF" stroke-opacity="0.5"/>
<line x1="75" y1="337.5" x2="1010" y2="337.5" stroke="#BFBFBF" stroke-opacity="0.5"/>
<line x1="75" y1="283.5" x2="1010" y2="283.5" stroke="#BFBFBF" stroke-opacity="0.5"/>
<line x1="75" y1="225.5" x2="1010" y2="225.5" stroke="#BFBFBF" stroke-opacity="0.5"/>
<line x1="75" y1="170.5" x2="1010" y2="170.5" stroke="#BFBFBF" stroke-opacity="0.5"/>
<line x1="75" y1="116.5" x2="1010" y2="116.5" stroke="#BFBFBF" stroke-opacity="0.5"/>
<g filter="url(#filter1_f_3969_13174)">
<path d="M81.4766 346.119C89.9276 347.38 109.582 345.531 120.593 328.049C134.356 306.197 115.522 265.434 156.087 257.449C196.652 249.465 198.825 359.146 243.736 363.769C288.648 368.392 345.149 301.994 372.675 311.66C400.201 321.325 427.728 363.349 454.529 359.567C481.331 355.785 488.756 285.605 546.525 285.605C590.005 285.605 584.192 328.049 629.104 328.049C674.015 328.049 703.714 225.511 739.208 241.48C774.703 257.449 768.142 285.605 809.473 285.605C874.667 285.605 849.216 241.48 907.263 241.48C965.31 241.48 989.671 285.605 995 300.183" stroke="#399BF1" stroke-width="1.5"/>
</g>
<path d="M98.5508 346.119C106.643 347.38 125.464 345.531 136.007 328.049C149.186 306.197 131.151 265.434 169.995 257.449C208.838 249.465 210.919 359.146 253.924 363.769C296.928 368.392 351.032 301.994 377.389 311.66C403.747 321.325 430.105 363.349 455.769 359.567C481.434 355.785 488.543 285.605 543.86 285.605C585.494 285.605 579.929 328.049 622.934 328.049C665.939 328.049 694.378 225.511 728.365 241.48C762.353 257.449 756.07 285.605 795.647 285.605C858.074 285.605 833.704 241.48 889.287 241.48C944.87 241.48 968.197 285.605 973.3 300.183" stroke="#F00513" stroke-width="2"/>
<g filter="url(#filter2_f_3969_13174)">
<path d="M70.9613 321.966C79.7935 324.232 100.202 320.278 111.176 286.328C124.895 243.891 104.154 165.606 146.158 149.401C188.162 133.196 193.479 344.794 240.359 352.83C287.238 360.866 344.204 231.634 373.127 249.743C402.05 267.852 431.874 348.398 459.668 340.573C487.462 332.748 493.237 197.184 553.372 196.047C598.632 195.191 593.764 277.205 640.515 276.321C687.266 275.437 715.326 76.9967 752.719 107.112C790.111 137.227 784.066 191.685 827.09 190.872C894.954 189.589 867.232 104.947 927.657 103.805C988.081 102.662 1014.67 187.326 1020.62 215.35" stroke="#399BF1" stroke-width="1.5"/>
</g>
<path d="M88.7347 321.63C97.1936 323.904 116.733 319.965 127.222 286.025C140.332 243.6 120.423 165.299 160.635 149.127C200.847 132.956 206.068 344.556 250.963 352.63C295.858 360.703 350.328 231.519 378.034 249.65C405.741 267.782 434.349 348.352 460.959 340.549C487.569 332.746 493.015 197.188 550.598 196.099C593.937 195.28 589.326 277.289 634.092 276.443C678.859 275.596 705.607 77.1807 741.431 107.325C777.256 137.47 771.5 191.923 812.698 191.144C877.681 189.916 851.084 105.252 908.944 104.159C966.804 103.065 992.315 187.749 998.033 215.777" stroke="#0046BC" stroke-width="2"/>
<path d="M86.992 462.242V469.452C86.992 470.255 86.7447 470.899 86.25 471.384C85.7553 471.86 85.102 472.098 84.29 472.098C83.4687 472.098 82.8107 471.855 82.316 471.37C81.8213 470.875 81.574 470.203 81.574 469.354H82.848C82.8573 469.83 82.9787 470.217 83.212 470.516C83.4547 470.815 83.814 470.964 84.29 470.964C84.766 470.964 85.1207 470.824 85.354 470.544C85.5873 470.255 85.704 469.891 85.704 469.452V462.242H86.992ZM88.3958 468.136C88.3958 467.352 88.5545 466.666 88.8718 466.078C89.1892 465.481 89.6232 465.019 90.1738 464.692C90.7338 464.365 91.3545 464.202 92.0358 464.202C92.7078 464.202 93.2912 464.347 93.7858 464.636C94.2805 464.925 94.6492 465.289 94.8918 465.728V464.328H96.1798V472H94.8918V470.572C94.6398 471.02 94.2618 471.393 93.7578 471.692C93.2632 471.981 92.6845 472.126 92.0218 472.126C91.3405 472.126 90.7245 471.958 90.1738 471.622C89.6232 471.286 89.1892 470.815 88.8718 470.208C88.5545 469.601 88.3958 468.911 88.3958 468.136ZM94.8918 468.15C94.8918 467.571 94.7752 467.067 94.5418 466.638C94.3085 466.209 93.9912 465.882 93.5898 465.658C93.1978 465.425 92.7638 465.308 92.2878 465.308C91.8118 465.308 91.3778 465.42 90.9858 465.644C90.5938 465.868 90.2812 466.195 90.0478 466.624C89.8145 467.053 89.6978 467.557 89.6978 468.136C89.6978 468.724 89.8145 469.237 90.0478 469.676C90.2812 470.105 90.5938 470.437 90.9858 470.67C91.3778 470.894 91.8118 471.006 92.2878 471.006C92.7638 471.006 93.1978 470.894 93.5898 470.67C93.9912 470.437 94.3085 470.105 94.5418 469.676C94.7752 469.237 94.8918 468.729 94.8918 468.15ZM101.441 464.188C102.374 464.188 103.13 464.473 103.709 465.042C104.287 465.602 104.577 466.414 104.577 467.478V472H103.317V467.66C103.317 466.895 103.125 466.311 102.743 465.91C102.36 465.499 101.837 465.294 101.175 465.294C100.503 465.294 99.9661 465.504 99.5648 465.924C99.1728 466.344 98.9768 466.955 98.9768 467.758V472H97.7028V464.328H98.9768V465.42C99.2288 465.028 99.5694 464.725 99.9988 464.51C100.437 464.295 100.918 464.188 101.441 464.188Z" fill="#606060"/>
<path d="M164.594 462.242V463.278H160.352V466.568H163.796V467.604H160.352V472H159.078V462.242H164.594ZM172.503 467.87C172.503 468.113 172.489 468.369 172.461 468.64H166.329C166.375 469.396 166.632 469.989 167.099 470.418C167.575 470.838 168.149 471.048 168.821 471.048C169.371 471.048 169.829 470.922 170.193 470.67C170.566 470.409 170.827 470.063 170.977 469.634H172.349C172.143 470.371 171.733 470.973 171.117 471.44C170.501 471.897 169.735 472.126 168.821 472.126C168.093 472.126 167.439 471.963 166.861 471.636C166.291 471.309 165.843 470.847 165.517 470.25C165.19 469.643 165.027 468.943 165.027 468.15C165.027 467.357 165.185 466.661 165.503 466.064C165.82 465.467 166.263 465.009 166.833 464.692C167.411 464.365 168.074 464.202 168.821 464.202C169.549 464.202 170.193 464.361 170.753 464.678C171.313 464.995 171.742 465.434 172.041 465.994C172.349 466.545 172.503 467.17 172.503 467.87ZM171.187 467.604C171.187 467.119 171.079 466.703 170.865 466.358C170.65 466.003 170.356 465.737 169.983 465.56C169.619 465.373 169.213 465.28 168.765 465.28C168.121 465.28 167.57 465.485 167.113 465.896C166.665 466.307 166.408 466.876 166.343 467.604H171.187ZM174.828 465.756C175.09 465.299 175.472 464.925 175.976 464.636C176.48 464.347 177.054 464.202 177.698 464.202C178.389 464.202 179.01 464.365 179.56 464.692C180.111 465.019 180.545 465.481 180.862 466.078C181.18 466.666 181.338 467.352 181.338 468.136C181.338 468.911 181.18 469.601 180.862 470.208C180.545 470.815 180.106 471.286 179.546 471.622C178.996 471.958 178.38 472.126 177.698 472.126C177.036 472.126 176.452 471.981 175.948 471.692C175.454 471.403 175.08 471.034 174.828 470.586V472H173.554V461.64H174.828V465.756ZM180.036 468.136C180.036 467.557 179.92 467.053 179.686 466.624C179.453 466.195 179.136 465.868 178.734 465.644C178.342 465.42 177.908 465.308 177.432 465.308C176.966 465.308 176.532 465.425 176.13 465.658C175.738 465.882 175.421 466.213 175.178 466.652C174.945 467.081 174.828 467.581 174.828 468.15C174.828 468.729 174.945 469.237 175.178 469.676C175.421 470.105 175.738 470.437 176.13 470.67C176.532 470.894 176.966 471.006 177.432 471.006C177.908 471.006 178.342 470.894 178.734 470.67C179.136 470.437 179.453 470.105 179.686 469.676C179.92 469.237 180.036 468.724 180.036 468.136Z" fill="#606060"/>
<path d="M244.976 462.312V472H243.702V464.776L240.482 472H239.586L236.352 464.762V472H235.078V462.312H236.45L240.034 470.32L243.618 462.312H244.976ZM246.031 468.136C246.031 467.352 246.189 466.666 246.507 466.078C246.824 465.481 247.258 465.019 247.809 464.692C248.369 464.365 248.989 464.202 249.671 464.202C250.343 464.202 250.926 464.347 251.421 464.636C251.915 464.925 252.284 465.289 252.527 465.728V464.328H253.815V472H252.527V470.572C252.275 471.02 251.897 471.393 251.393 471.692C250.898 471.981 250.319 472.126 249.657 472.126C248.975 472.126 248.359 471.958 247.809 471.622C247.258 471.286 246.824 470.815 246.507 470.208C246.189 469.601 246.031 468.911 246.031 468.136ZM252.527 468.15C252.527 467.571 252.41 467.067 252.177 466.638C251.943 466.209 251.626 465.882 251.225 465.658C250.833 465.425 250.399 465.308 249.923 465.308C249.447 465.308 249.013 465.42 248.621 465.644C248.229 465.868 247.916 466.195 247.683 466.624C247.449 467.053 247.333 467.557 247.333 468.136C247.333 468.724 247.449 469.237 247.683 469.676C247.916 470.105 248.229 470.437 248.621 470.67C249.013 470.894 249.447 471.006 249.923 471.006C250.399 471.006 250.833 470.894 251.225 470.67C251.626 470.437 251.943 470.105 252.177 469.676C252.41 469.237 252.527 468.729 252.527 468.15ZM256.612 465.574C256.836 465.135 257.153 464.795 257.564 464.552C257.984 464.309 258.492 464.188 259.09 464.188V465.504H258.754C257.326 465.504 256.612 466.279 256.612 467.828V472H255.338V464.328H256.612V465.574ZM259.454 468.15C259.454 467.357 259.613 466.666 259.93 466.078C260.248 465.481 260.686 465.019 261.246 464.692C261.816 464.365 262.464 464.202 263.192 464.202C264.135 464.202 264.91 464.431 265.516 464.888C266.132 465.345 266.538 465.98 266.734 466.792H265.362C265.232 466.325 264.975 465.957 264.592 465.686C264.219 465.415 263.752 465.28 263.192 465.28C262.464 465.28 261.876 465.532 261.428 466.036C260.98 466.531 260.756 467.235 260.756 468.15C260.756 469.074 260.98 469.788 261.428 470.292C261.876 470.796 262.464 471.048 263.192 471.048C263.752 471.048 264.219 470.917 264.592 470.656C264.966 470.395 265.222 470.021 265.362 469.536H266.734C266.529 470.32 266.118 470.95 265.502 471.426C264.886 471.893 264.116 472.126 263.192 472.126C262.464 472.126 261.816 471.963 261.246 471.636C260.686 471.309 260.248 470.847 259.93 470.25C259.613 469.653 259.454 468.953 259.454 468.15ZM271.612 464.188C272.191 464.188 272.713 464.314 273.18 464.566C273.647 464.809 274.011 465.177 274.272 465.672C274.543 466.167 274.678 466.769 274.678 467.478V472H273.418V467.66C273.418 466.895 273.227 466.311 272.844 465.91C272.461 465.499 271.939 465.294 271.276 465.294C270.604 465.294 270.067 465.504 269.666 465.924C269.274 466.344 269.078 466.955 269.078 467.758V472H267.804V461.64H269.078V465.42C269.33 465.028 269.675 464.725 270.114 464.51C270.562 464.295 271.061 464.188 271.612 464.188Z" fill="#606060"/>
<path d="M334.846 469.83H330.59L329.806 472H328.462L331.99 462.298H333.46L336.974 472H335.63L334.846 469.83ZM334.482 468.794L332.718 463.866L330.954 468.794H334.482ZM339.156 465.742C339.408 465.303 339.781 464.939 340.276 464.65C340.78 464.351 341.363 464.202 342.026 464.202C342.707 464.202 343.323 464.365 343.874 464.692C344.434 465.019 344.872 465.481 345.19 466.078C345.507 466.666 345.666 467.352 345.666 468.136C345.666 468.911 345.507 469.601 345.19 470.208C344.872 470.815 344.434 471.286 343.874 471.622C343.323 471.958 342.707 472.126 342.026 472.126C341.372 472.126 340.794 471.981 340.29 471.692C339.795 471.393 339.417 471.025 339.156 470.586V475.64H337.882V464.328H339.156V465.742ZM344.364 468.136C344.364 467.557 344.247 467.053 344.014 466.624C343.78 466.195 343.463 465.868 343.062 465.644C342.67 465.42 342.236 465.308 341.76 465.308C341.293 465.308 340.859 465.425 340.458 465.658C340.066 465.882 339.748 466.213 339.506 466.652C339.272 467.081 339.156 467.581 339.156 468.15C339.156 468.729 339.272 469.237 339.506 469.676C339.748 470.105 340.066 470.437 340.458 470.67C340.859 470.894 341.293 471.006 341.76 471.006C342.236 471.006 342.67 470.894 343.062 470.67C343.463 470.437 343.78 470.105 344.014 469.676C344.247 469.237 344.364 468.724 344.364 468.136ZM347.987 465.574C348.211 465.135 348.528 464.795 348.939 464.552C349.359 464.309 349.867 464.188 350.465 464.188V465.504H350.129C348.701 465.504 347.987 466.279 347.987 467.828V472H346.713V464.328H347.987V465.574ZM351.963 463.082C351.721 463.082 351.515 462.998 351.347 462.83C351.179 462.662 351.095 462.457 351.095 462.214C351.095 461.971 351.179 461.766 351.347 461.598C351.515 461.43 351.721 461.346 351.963 461.346C352.197 461.346 352.393 461.43 352.551 461.598C352.719 461.766 352.803 461.971 352.803 462.214C352.803 462.457 352.719 462.662 352.551 462.83C352.393 462.998 352.197 463.082 351.963 463.082ZM352.579 464.328V472H351.305V464.328H352.579ZM355.394 461.64V472H354.12V461.64H355.394Z" fill="#606060"/>
<path d="M419.976 462.312V472H418.702V464.776L415.482 472H414.586L411.352 464.762V472H410.078V462.312H411.45L415.034 470.32L418.618 462.312H419.976ZM421.031 468.136C421.031 467.352 421.189 466.666 421.507 466.078C421.824 465.481 422.258 465.019 422.809 464.692C423.369 464.365 423.989 464.202 424.671 464.202C425.343 464.202 425.926 464.347 426.421 464.636C426.915 464.925 427.284 465.289 427.527 465.728V464.328H428.815V472H427.527V470.572C427.275 471.02 426.897 471.393 426.393 471.692C425.898 471.981 425.319 472.126 424.657 472.126C423.975 472.126 423.359 471.958 422.809 471.622C422.258 471.286 421.824 470.815 421.507 470.208C421.189 469.601 421.031 468.911 421.031 468.136ZM427.527 468.15C427.527 467.571 427.41 467.067 427.177 466.638C426.943 466.209 426.626 465.882 426.225 465.658C425.833 465.425 425.399 465.308 424.923 465.308C424.447 465.308 424.013 465.42 423.621 465.644C423.229 465.868 422.916 466.195 422.683 466.624C422.449 467.053 422.333 467.557 422.333 468.136C422.333 468.724 422.449 469.237 422.683 469.676C422.916 470.105 423.229 470.437 423.621 470.67C424.013 470.894 424.447 471.006 424.923 471.006C425.399 471.006 425.833 470.894 426.225 470.67C426.626 470.437 426.943 470.105 427.177 469.676C427.41 469.237 427.527 468.729 427.527 468.15ZM436.946 464.328L432.326 475.612H431.01L432.522 471.916L429.428 464.328H430.842L433.25 470.544L435.63 464.328H436.946Z" fill="#606060"/>
<path d="M495.992 462.242V469.452C495.992 470.255 495.745 470.899 495.25 471.384C494.755 471.86 494.102 472.098 493.29 472.098C492.469 472.098 491.811 471.855 491.316 471.37C490.821 470.875 490.574 470.203 490.574 469.354H491.848C491.857 469.83 491.979 470.217 492.212 470.516C492.455 470.815 492.814 470.964 493.29 470.964C493.766 470.964 494.121 470.824 494.354 470.544C494.587 470.255 494.704 469.891 494.704 469.452V462.242H495.992ZM504.676 464.328V472H503.402V470.866C503.159 471.258 502.818 471.566 502.38 471.79C501.95 472.005 501.474 472.112 500.952 472.112C500.354 472.112 499.818 471.991 499.342 471.748C498.866 471.496 498.488 471.123 498.208 470.628C497.937 470.133 497.802 469.531 497.802 468.822V464.328H499.062V468.654C499.062 469.41 499.253 469.993 499.636 470.404C500.018 470.805 500.541 471.006 501.204 471.006C501.885 471.006 502.422 470.796 502.814 470.376C503.206 469.956 503.402 469.345 503.402 468.542V464.328H504.676ZM509.935 464.188C510.868 464.188 511.624 464.473 512.203 465.042C512.782 465.602 513.071 466.414 513.071 467.478V472H511.811V467.66C511.811 466.895 511.62 466.311 511.237 465.91C510.854 465.499 510.332 465.294 509.669 465.294C508.997 465.294 508.46 465.504 508.059 465.924C507.667 466.344 507.471 466.955 507.471 467.758V472H506.197V464.328H507.471V465.42C507.723 465.028 508.064 464.725 508.493 464.51C508.932 464.295 509.412 464.188 509.935 464.188ZM521.522 467.87C521.522 468.113 521.508 468.369 521.48 468.64H515.348C515.395 469.396 515.651 469.989 516.118 470.418C516.594 470.838 517.168 471.048 517.84 471.048C518.391 471.048 518.848 470.922 519.212 470.67C519.585 470.409 519.847 470.063 519.996 469.634H521.368C521.163 470.371 520.752 470.973 520.136 471.44C519.52 471.897 518.755 472.126 517.84 472.126C517.112 472.126 516.459 471.963 515.88 471.636C515.311 471.309 514.863 470.847 514.536 470.25C514.209 469.643 514.046 468.943 514.046 468.15C514.046 467.357 514.205 466.661 514.522 466.064C514.839 465.467 515.283 465.009 515.852 464.692C516.431 464.365 517.093 464.202 517.84 464.202C518.568 464.202 519.212 464.361 519.772 464.678C520.332 464.995 520.761 465.434 521.06 465.994C521.368 466.545 521.522 467.17 521.522 467.87ZM520.206 467.604C520.206 467.119 520.099 466.703 519.884 466.358C519.669 466.003 519.375 465.737 519.002 465.56C518.638 465.373 518.232 465.28 517.784 465.28C517.14 465.28 516.589 465.485 516.132 465.896C515.684 466.307 515.427 466.876 515.362 467.604H520.206Z" fill="#606060"/>
<path d="M580.992 462.242V469.452C580.992 470.255 580.745 470.899 580.25 471.384C579.755 471.86 579.102 472.098 578.29 472.098C577.469 472.098 576.811 471.855 576.316 471.37C575.821 470.875 575.574 470.203 575.574 469.354H576.848C576.857 469.83 576.979 470.217 577.212 470.516C577.455 470.815 577.814 470.964 578.29 470.964C578.766 470.964 579.121 470.824 579.354 470.544C579.587 470.255 579.704 469.891 579.704 469.452V462.242H580.992ZM589.676 464.328V472H588.402V470.866C588.159 471.258 587.818 471.566 587.38 471.79C586.95 472.005 586.474 472.112 585.952 472.112C585.354 472.112 584.818 471.991 584.342 471.748C583.866 471.496 583.488 471.123 583.208 470.628C582.937 470.133 582.802 469.531 582.802 468.822V464.328H584.062V468.654C584.062 469.41 584.253 469.993 584.636 470.404C585.018 470.805 585.541 471.006 586.204 471.006C586.885 471.006 587.422 470.796 587.814 470.376C588.206 469.956 588.402 469.345 588.402 468.542V464.328H589.676ZM592.471 461.64V472H591.197V461.64H592.471ZM600.62 464.328L596 475.612H594.684L596.196 471.916L593.102 464.328H594.516L596.924 470.544L599.304 464.328H600.62Z" fill="#606060"/>
<path d="M659.846 469.83H655.59L654.806 472H653.462L656.99 462.298H658.46L661.974 472H660.63L659.846 469.83ZM659.482 468.794L657.718 463.866L655.954 468.794H659.482ZM669.686 464.328V472H668.412V470.866C668.169 471.258 667.828 471.566 667.39 471.79C666.96 472.005 666.484 472.112 665.962 472.112C665.364 472.112 664.828 471.991 664.352 471.748C663.876 471.496 663.498 471.123 663.218 470.628C662.947 470.133 662.812 469.531 662.812 468.822V464.328H664.072V468.654C664.072 469.41 664.263 469.993 664.646 470.404C665.028 470.805 665.551 471.006 666.214 471.006C666.895 471.006 667.432 470.796 667.824 470.376C668.216 469.956 668.412 469.345 668.412 468.542V464.328H669.686ZM674.371 464.202C675.033 464.202 675.612 464.347 676.107 464.636C676.611 464.925 676.984 465.289 677.227 465.728V464.328H678.515V472.168C678.515 472.868 678.365 473.489 678.067 474.03C677.768 474.581 677.339 475.01 676.779 475.318C676.228 475.626 675.584 475.78 674.847 475.78C673.839 475.78 672.999 475.542 672.327 475.066C671.655 474.59 671.258 473.941 671.137 473.12H672.397C672.537 473.587 672.826 473.96 673.265 474.24C673.703 474.529 674.231 474.674 674.847 474.674C675.547 474.674 676.116 474.455 676.555 474.016C677.003 473.577 677.227 472.961 677.227 472.168V470.558C676.975 471.006 676.601 471.379 676.107 471.678C675.612 471.977 675.033 472.126 674.371 472.126C673.689 472.126 673.069 471.958 672.509 471.622C671.958 471.286 671.524 470.815 671.207 470.208C670.889 469.601 670.731 468.911 670.731 468.136C670.731 467.352 670.889 466.666 671.207 466.078C671.524 465.481 671.958 465.019 672.509 464.692C673.069 464.365 673.689 464.202 674.371 464.202ZM677.227 468.15C677.227 467.571 677.11 467.067 676.877 466.638C676.643 466.209 676.326 465.882 675.925 465.658C675.533 465.425 675.099 465.308 674.623 465.308C674.147 465.308 673.713 465.42 673.321 465.644C672.929 465.868 672.616 466.195 672.383 466.624C672.149 467.053 672.033 467.557 672.033 468.136C672.033 468.724 672.149 469.237 672.383 469.676C672.616 470.105 672.929 470.437 673.321 470.67C673.713 470.894 674.147 471.006 674.623 471.006C675.099 471.006 675.533 470.894 675.925 470.67C676.326 470.437 676.643 470.105 676.877 469.676C677.11 469.237 677.227 468.729 677.227 468.15Z" fill="#606060"/>
<path d="M736.172 472.098C735.528 472.098 734.949 471.986 734.436 471.762C733.932 471.529 733.535 471.211 733.246 470.81C732.957 470.399 732.807 469.928 732.798 469.396H734.156C734.203 469.853 734.389 470.241 734.716 470.558C735.052 470.866 735.537 471.02 736.172 471.02C736.779 471.02 737.255 470.871 737.6 470.572C737.955 470.264 738.132 469.872 738.132 469.396C738.132 469.023 738.029 468.719 737.824 468.486C737.619 468.253 737.362 468.075 737.054 467.954C736.746 467.833 736.331 467.702 735.808 467.562C735.164 467.394 734.646 467.226 734.254 467.058C733.871 466.89 733.54 466.629 733.26 466.274C732.989 465.91 732.854 465.425 732.854 464.818C732.854 464.286 732.989 463.815 733.26 463.404C733.531 462.993 733.909 462.676 734.394 462.452C734.889 462.228 735.453 462.116 736.088 462.116C737.003 462.116 737.749 462.345 738.328 462.802C738.916 463.259 739.247 463.866 739.322 464.622H737.922C737.875 464.249 737.679 463.922 737.334 463.642C736.989 463.353 736.531 463.208 735.962 463.208C735.43 463.208 734.996 463.348 734.66 463.628C734.324 463.899 734.156 464.281 734.156 464.776C734.156 465.131 734.254 465.42 734.45 465.644C734.655 465.868 734.903 466.041 735.192 466.162C735.491 466.274 735.906 466.405 736.438 466.554C737.082 466.731 737.6 466.909 737.992 467.086C738.384 467.254 738.72 467.52 739 467.884C739.28 468.239 739.42 468.724 739.42 469.34C739.42 469.816 739.294 470.264 739.042 470.684C738.79 471.104 738.417 471.445 737.922 471.706C737.427 471.967 736.844 472.098 736.172 472.098ZM747.665 467.87C747.665 468.113 747.651 468.369 747.623 468.64H741.491C741.537 469.396 741.794 469.989 742.261 470.418C742.737 470.838 743.311 471.048 743.983 471.048C744.533 471.048 744.991 470.922 745.355 470.67C745.728 470.409 745.989 470.063 746.139 469.634H747.511C747.305 470.371 746.895 470.973 746.279 471.44C745.663 471.897 744.897 472.126 743.983 472.126C743.255 472.126 742.601 471.963 742.023 471.636C741.453 471.309 741.005 470.847 740.679 470.25C740.352 469.643 740.189 468.943 740.189 468.15C740.189 467.357 740.347 466.661 740.665 466.064C740.982 465.467 741.425 465.009 741.995 464.692C742.573 464.365 743.236 464.202 743.983 464.202C744.711 464.202 745.355 464.361 745.915 464.678C746.475 464.995 746.904 465.434 747.203 465.994C747.511 466.545 747.665 467.17 747.665 467.87ZM746.349 467.604C746.349 467.119 746.241 466.703 746.027 466.358C745.812 466.003 745.518 465.737 745.145 465.56C744.781 465.373 744.375 465.28 743.927 465.28C743.283 465.28 742.732 465.485 742.275 465.896C741.827 466.307 741.57 466.876 741.505 467.604H746.349ZM749.99 465.742C750.242 465.303 750.616 464.939 751.11 464.65C751.614 464.351 752.198 464.202 752.86 464.202C753.542 464.202 754.158 464.365 754.708 464.692C755.268 465.019 755.707 465.481 756.024 466.078C756.342 466.666 756.5 467.352 756.5 468.136C756.5 468.911 756.342 469.601 756.024 470.208C755.707 470.815 755.268 471.286 754.708 471.622C754.158 471.958 753.542 472.126 752.86 472.126C752.207 472.126 751.628 471.981 751.124 471.692C750.63 471.393 750.252 471.025 749.99 470.586V475.64H748.716V464.328H749.99V465.742ZM755.198 468.136C755.198 467.557 755.082 467.053 754.848 466.624C754.615 466.195 754.298 465.868 753.896 465.644C753.504 465.42 753.07 465.308 752.594 465.308C752.128 465.308 751.694 465.425 751.292 465.658C750.9 465.882 750.583 466.213 750.34 466.652C750.107 467.081 749.99 467.581 749.99 468.15C749.99 468.729 750.107 469.237 750.34 469.676C750.583 470.105 750.9 470.437 751.292 470.67C751.694 470.894 752.128 471.006 752.594 471.006C753.07 471.006 753.504 470.894 753.896 470.67C754.298 470.437 754.615 470.105 754.848 469.676C755.082 469.237 755.198 468.724 755.198 468.136ZM759.101 465.378V469.9C759.101 470.273 759.181 470.539 759.339 470.698C759.498 470.847 759.773 470.922 760.165 470.922H761.103V472H759.955C759.246 472 758.714 471.837 758.359 471.51C758.005 471.183 757.827 470.647 757.827 469.9V465.378H756.833V464.328H757.827V462.396H759.101V464.328H761.103V465.378H759.101Z" fill="#606060"/>
<path d="M819.502 472.098C818.597 472.098 817.771 471.888 817.024 471.468C816.277 471.039 815.685 470.446 815.246 469.69C814.817 468.925 814.602 468.066 814.602 467.114C814.602 466.162 814.817 465.308 815.246 464.552C815.685 463.787 816.277 463.194 817.024 462.774C817.771 462.345 818.597 462.13 819.502 462.13C820.417 462.13 821.247 462.345 821.994 462.774C822.741 463.194 823.329 463.782 823.758 464.538C824.187 465.294 824.402 466.153 824.402 467.114C824.402 468.075 824.187 468.934 823.758 469.69C823.329 470.446 822.741 471.039 821.994 471.468C821.247 471.888 820.417 472.098 819.502 472.098ZM819.502 470.992C820.183 470.992 820.795 470.833 821.336 470.516C821.887 470.199 822.316 469.746 822.624 469.158C822.941 468.57 823.1 467.889 823.1 467.114C823.1 466.33 822.941 465.649 822.624 465.07C822.316 464.482 821.891 464.029 821.35 463.712C820.809 463.395 820.193 463.236 819.502 463.236C818.811 463.236 818.195 463.395 817.654 463.712C817.113 464.029 816.683 464.482 816.366 465.07C816.058 465.649 815.904 466.33 815.904 467.114C815.904 467.889 816.058 468.57 816.366 469.158C816.683 469.746 817.113 470.199 817.654 470.516C818.205 470.833 818.821 470.992 819.502 470.992ZM824.978 468.15C824.978 467.357 825.137 466.666 825.454 466.078C825.771 465.481 826.21 465.019 826.77 464.692C827.339 464.365 827.988 464.202 828.716 464.202C829.659 464.202 830.433 464.431 831.04 464.888C831.656 465.345 832.062 465.98 832.258 466.792H830.886C830.755 466.325 830.499 465.957 830.116 465.686C829.743 465.415 829.276 465.28 828.716 465.28C827.988 465.28 827.4 465.532 826.952 466.036C826.504 466.531 826.28 467.235 826.28 468.15C826.28 469.074 826.504 469.788 826.952 470.292C827.4 470.796 827.988 471.048 828.716 471.048C829.276 471.048 829.743 470.917 830.116 470.656C830.489 470.395 830.746 470.021 830.886 469.536H832.258C832.053 470.32 831.642 470.95 831.026 471.426C830.41 471.893 829.64 472.126 828.716 472.126C827.988 472.126 827.339 471.963 826.77 471.636C826.21 471.309 825.771 470.847 825.454 470.25C825.137 469.653 824.978 468.953 824.978 468.15ZM834.882 465.378V469.9C834.882 470.273 834.961 470.539 835.12 470.698C835.278 470.847 835.554 470.922 835.946 470.922H836.884V472H835.736C835.026 472 834.494 471.837 834.14 471.51C833.785 471.183 833.608 470.647 833.608 469.9V465.378H832.614V464.328H833.608V462.396H834.882V464.328H836.884V465.378H834.882Z" fill="#606060"/>
<path d="M898.75 472H897.476L892.352 464.23V472H891.078V462.228H892.352L897.476 469.984V462.228H898.75V472ZM903.638 472.126C902.919 472.126 902.266 471.963 901.678 471.636C901.099 471.309 900.642 470.847 900.306 470.25C899.979 469.643 899.816 468.943 899.816 468.15C899.816 467.366 899.984 466.675 900.32 466.078C900.665 465.471 901.132 465.009 901.72 464.692C902.308 464.365 902.966 464.202 903.694 464.202C904.422 464.202 905.08 464.365 905.668 464.692C906.256 465.009 906.718 465.467 907.054 466.064C907.399 466.661 907.572 467.357 907.572 468.15C907.572 468.943 907.394 469.643 907.04 470.25C906.694 470.847 906.223 471.309 905.626 471.636C905.028 471.963 904.366 472.126 903.638 472.126ZM903.638 471.006C904.095 471.006 904.524 470.899 904.926 470.684C905.327 470.469 905.649 470.147 905.892 469.718C906.144 469.289 906.27 468.766 906.27 468.15C906.27 467.534 906.148 467.011 905.906 466.582C905.663 466.153 905.346 465.835 904.954 465.63C904.562 465.415 904.137 465.308 903.68 465.308C903.213 465.308 902.784 465.415 902.392 465.63C902.009 465.835 901.701 466.153 901.468 466.582C901.234 467.011 901.118 467.534 901.118 468.15C901.118 468.775 901.23 469.303 901.454 469.732C901.687 470.161 901.995 470.483 902.378 470.698C902.76 470.903 903.18 471.006 903.638 471.006ZM911.473 470.824L913.853 464.328H915.211L912.201 472H910.717L907.707 464.328H909.079L911.473 470.824Z" fill="#606060"/>
<path d="M972.116 462.242C973.18 462.242 974.099 462.443 974.874 462.844C975.658 463.236 976.255 463.801 976.666 464.538C977.086 465.275 977.296 466.143 977.296 467.142C977.296 468.141 977.086 469.009 976.666 469.746C976.255 470.474 975.658 471.034 974.874 471.426C974.099 471.809 973.18 472 972.116 472H969.078V462.242H972.116ZM972.116 470.95C973.376 470.95 974.337 470.619 975 469.956C975.663 469.284 975.994 468.346 975.994 467.142C975.994 465.929 975.658 464.981 974.986 464.3C974.323 463.619 973.367 463.278 972.116 463.278H970.352V470.95H972.116ZM985.346 467.87C985.346 468.113 985.332 468.369 985.304 468.64H979.172C979.219 469.396 979.476 469.989 979.942 470.418C980.418 470.838 980.992 471.048 981.664 471.048C982.215 471.048 982.672 470.922 983.036 470.67C983.41 470.409 983.671 470.063 983.82 469.634H985.192C984.987 470.371 984.576 470.973 983.96 471.44C983.344 471.897 982.579 472.126 981.664 472.126C980.936 472.126 980.283 471.963 979.704 471.636C979.135 471.309 978.687 470.847 978.36 470.25C978.034 469.643 977.87 468.943 977.87 468.15C977.87 467.357 978.029 466.661 978.346 466.064C978.664 465.467 979.107 465.009 979.676 464.692C980.255 464.365 980.918 464.202 981.664 464.202C982.392 464.202 983.036 464.361 983.596 464.678C984.156 464.995 984.586 465.434 984.884 465.994C985.192 466.545 985.346 467.17 985.346 467.87ZM984.03 467.604C984.03 467.119 983.923 466.703 983.708 466.358C983.494 466.003 983.2 465.737 982.826 465.56C982.462 465.373 982.056 465.28 981.608 465.28C980.964 465.28 980.414 465.485 979.956 465.896C979.508 466.307 979.252 466.876 979.186 467.604H984.03ZM985.922 468.15C985.922 467.357 986.081 466.666 986.398 466.078C986.715 465.481 987.154 465.019 987.714 464.692C988.283 464.365 988.932 464.202 989.66 464.202C990.603 464.202 991.377 464.431 991.984 464.888C992.6 465.345 993.006 465.98 993.202 466.792H991.83C991.699 466.325 991.443 465.957 991.06 465.686C990.687 465.415 990.22 465.28 989.66 465.28C988.932 465.28 988.344 465.532 987.896 466.036C987.448 466.531 987.224 467.235 987.224 468.15C987.224 469.074 987.448 469.788 987.896 470.292C988.344 470.796 988.932 471.048 989.66 471.048C990.22 471.048 990.687 470.917 991.06 470.656C991.433 470.395 991.69 470.021 991.83 469.536H993.202C992.997 470.32 992.586 470.95 991.97 471.426C991.354 471.893 990.584 472.126 989.66 472.126C988.932 472.126 988.283 471.963 987.714 471.636C987.154 471.309 986.715 470.847 986.398 470.25C986.081 469.653 985.922 468.953 985.922 468.15Z" fill="#606060"/>
<rect x="363" y="238" width="20.9539" height="20.9539" rx="10.477" fill="#0046BC"/>
<circle cx="373.478" cy="248.477" r="7.33388" fill="#D9D9D9"/>
<path d="M53.2 67.64C52.2267 67.64 51.3467 67.4733 50.56 67.14C49.7867 66.8067 49.1733 66.3267 48.72 65.7C48.2667 65.0733 48.0333 64.3333 48.02 63.48H51.02C51.06 64.0533 51.26 64.5067 51.62 64.84C51.9933 65.1733 52.5 65.34 53.14 65.34C53.7933 65.34 54.3067 65.1867 54.68 64.88C55.0533 64.56 55.24 64.1467 55.24 63.64C55.24 63.2267 55.1133 62.8867 54.86 62.62C54.6067 62.3533 54.2867 62.1467 53.9 62C53.5267 61.84 53.0067 61.6667 52.34 61.48C51.4333 61.2133 50.6933 60.9533 50.12 60.7C49.56 60.4333 49.0733 60.04 48.66 59.52C48.26 58.9867 48.06 58.28 48.06 57.4C48.06 56.5733 48.2667 55.8533 48.68 55.24C49.0933 54.6267 49.6733 54.16 50.42 53.84C51.1667 53.5067 52.02 53.34 52.98 53.34C54.42 53.34 55.5867 53.6933 56.48 54.4C57.3867 55.0933 57.8867 56.0667 57.98 57.32H54.9C54.8733 56.84 54.6667 56.4467 54.28 56.14C53.9067 55.82 53.4067 55.66 52.78 55.66C52.2333 55.66 51.7933 55.8 51.46 56.08C51.14 56.36 50.98 56.7667 50.98 57.3C50.98 57.6733 51.1 57.9867 51.34 58.24C51.5933 58.48 51.9 58.68 52.26 58.84C52.6333 58.9867 53.1533 59.16 53.82 59.36C54.7267 59.6267 55.4667 59.8933 56.04 60.16C56.6133 60.4267 57.1067 60.8267 57.52 61.36C57.9333 61.8933 58.14 62.5933 58.14 63.46C58.14 64.2067 57.9467 64.9 57.56 65.54C57.1733 66.18 56.6067 66.6933 55.86 67.08C55.1133 67.4533 54.2267 67.64 53.2 67.64ZM62.9275 58.72V64.08C62.9275 64.4533 63.0142 64.7267 63.1875 64.9C63.3742 65.06 63.6808 65.14 64.1075 65.14H65.4075V67.5H63.6475C61.2875 67.5 60.1075 66.3533 60.1075 64.06V58.72H58.7875V56.42H60.1075V53.68H62.9275V56.42H65.4075V58.72H62.9275ZM65.8014 61.92C65.8014 60.8 66.0214 59.8067 66.4614 58.94C66.9147 58.0733 67.5214 57.4067 68.2814 56.94C69.0547 56.4733 69.9147 56.24 70.8614 56.24C71.6881 56.24 72.4081 56.4067 73.0214 56.74C73.6481 57.0733 74.1481 57.4933 74.5214 58V56.42H77.3414V67.5H74.5214V65.88C74.1614 66.4 73.6614 66.8333 73.0214 67.18C72.3947 67.5133 71.6681 67.68 70.8414 67.68C69.9081 67.68 69.0547 67.44 68.2814 66.96C67.5214 66.48 66.9147 65.8067 66.4614 64.94C66.0214 64.06 65.8014 63.0533 65.8014 61.92ZM74.5214 61.96C74.5214 61.28 74.3881 60.7 74.1214 60.22C73.8547 59.7267 73.4947 59.3533 73.0414 59.1C72.5881 58.8333 72.1014 58.7 71.5814 58.7C71.0614 58.7 70.5814 58.8267 70.1414 59.08C69.7014 59.3333 69.3414 59.7067 69.0614 60.2C68.7947 60.68 68.6614 61.2533 68.6614 61.92C68.6614 62.5867 68.7947 63.1733 69.0614 63.68C69.3414 64.1733 69.7014 64.5533 70.1414 64.82C70.5947 65.0867 71.0747 65.22 71.5814 65.22C72.1014 65.22 72.5881 65.0933 73.0414 64.84C73.4947 64.5733 73.8547 64.2 74.1214 63.72C74.3881 63.2267 74.5214 62.64 74.5214 61.96ZM82.4361 58.72V64.08C82.4361 64.4533 82.5228 64.7267 82.6961 64.9C82.8828 65.06 83.1894 65.14 83.6161 65.14H84.9161V67.5H83.1561C80.7961 67.5 79.6161 66.3533 79.6161 64.06V58.72H78.2961V56.42H79.6161V53.68H82.4361V56.42H84.9161V58.72H82.4361ZM87.45 55.1C86.9567 55.1 86.5433 54.9467 86.21 54.64C85.89 54.32 85.73 53.9267 85.73 53.46C85.73 52.9933 85.89 52.6067 86.21 52.3C86.5433 51.98 86.9567 51.82 87.45 51.82C87.9433 51.82 88.35 51.98 88.67 52.3C89.0033 52.6067 89.17 52.9933 89.17 53.46C89.17 53.9267 89.0033 54.32 88.67 54.64C88.35 54.9467 87.9433 55.1 87.45 55.1ZM88.83 56.42V67.5H86.03V56.42H88.83ZM94.9364 67.68C94.0297 67.68 93.2164 67.52 92.4964 67.2C91.7764 66.8667 91.2031 66.42 90.7764 65.86C90.3631 65.3 90.1364 64.68 90.0964 64H92.9164C92.9697 64.4267 93.1764 64.78 93.5364 65.06C93.9097 65.34 94.3697 65.48 94.9164 65.48C95.4497 65.48 95.8631 65.3733 96.1564 65.16C96.4631 64.9467 96.6164 64.6733 96.6164 64.34C96.6164 63.98 96.4297 63.7133 96.0564 63.54C95.6964 63.3533 95.1164 63.1533 94.3164 62.94C93.4897 62.74 92.8097 62.5333 92.2764 62.32C91.7564 62.1067 91.3031 61.78 90.9164 61.34C90.5431 60.9 90.3564 60.3067 90.3564 59.56C90.3564 58.9467 90.5297 58.3867 90.8764 57.88C91.2364 57.3733 91.7431 56.9733 92.3964 56.68C93.0631 56.3867 93.8431 56.24 94.7364 56.24C96.0564 56.24 97.1097 56.5733 97.8964 57.24C98.6831 57.8933 99.1164 58.78 99.1964 59.9H96.5164C96.4764 59.46 96.2897 59.1133 95.9564 58.86C95.6364 58.5933 95.2031 58.46 94.6564 58.46C94.1497 58.46 93.7564 58.5533 93.4764 58.74C93.2097 58.9267 93.0764 59.1867 93.0764 59.52C93.0764 59.8933 93.2631 60.18 93.6364 60.38C94.0097 60.5667 94.5897 60.76 95.3764 60.96C96.1764 61.16 96.8364 61.3667 97.3564 61.58C97.8764 61.7933 98.3231 62.1267 98.6964 62.58C99.0831 63.02 99.2831 63.6067 99.2964 64.34C99.2964 64.98 99.1164 65.5533 98.7564 66.06C98.4097 66.5667 97.9031 66.9667 97.2364 67.26C96.5831 67.54 95.8164 67.68 94.9364 67.68ZM103.955 58.72V64.08C103.955 64.4533 104.042 64.7267 104.215 64.9C104.402 65.06 104.708 65.14 105.135 65.14H106.435V67.5H104.675C102.315 67.5 101.135 66.3533 101.135 64.06V58.72H99.8148V56.42H101.135V53.68H103.955V56.42H106.435V58.72H103.955ZM108.969 55.1C108.475 55.1 108.062 54.9467 107.729 54.64C107.409 54.32 107.249 53.9267 107.249 53.46C107.249 52.9933 107.409 52.6067 107.729 52.3C108.062 51.98 108.475 51.82 108.969 51.82C109.462 51.82 109.869 51.98 110.189 52.3C110.522 52.6067 110.689 52.9933 110.689 53.46C110.689 53.9267 110.522 54.32 110.189 54.64C109.869 54.9467 109.462 55.1 108.969 55.1ZM110.349 56.42V67.5H107.549V56.42H110.349ZM111.495 61.96C111.495 60.8133 111.728 59.8133 112.195 58.96C112.662 58.0933 113.308 57.4267 114.135 56.96C114.962 56.48 115.908 56.24 116.975 56.24C118.348 56.24 119.482 56.5867 120.375 57.28C121.282 57.96 121.888 58.92 122.195 60.16H119.175C119.015 59.68 118.742 59.3067 118.355 59.04C117.982 58.76 117.515 58.62 116.955 58.62C116.155 58.62 115.522 58.9133 115.055 59.5C114.588 60.0733 114.355 60.8933 114.355 61.96C114.355 63.0133 114.588 63.8333 115.055 64.42C115.522 64.9933 116.155 65.28 116.955 65.28C118.088 65.28 118.828 64.7733 119.175 63.76H122.195C121.888 64.96 121.282 65.9133 120.375 66.62C119.468 67.3267 118.335 67.68 116.975 67.68C115.908 67.68 114.962 67.4467 114.135 66.98C113.308 66.5 112.662 65.8333 112.195 64.98C111.728 64.1133 111.495 63.1067 111.495 61.96ZM122.626 61.92C122.626 60.8 122.846 59.8067 123.286 58.94C123.74 58.0733 124.346 57.4067 125.106 56.94C125.88 56.4733 126.74 56.24 127.686 56.24C128.513 56.24 129.233 56.4067 129.846 56.74C130.473 57.0733 130.973 57.4933 131.346 58V56.42H134.166V67.5H131.346V65.88C130.986 66.4 130.486 66.8333 129.846 67.18C129.22 67.5133 128.493 67.68 127.666 67.68C126.733 67.68 125.88 67.44 125.106 66.96C124.346 66.48 123.74 65.8067 123.286 64.94C122.846 64.06 122.626 63.0533 122.626 61.92ZM131.346 61.96C131.346 61.28 131.213 60.7 130.946 60.22C130.68 59.7267 130.32 59.3533 129.866 59.1C129.413 58.8333 128.926 58.7 128.406 58.7C127.886 58.7 127.406 58.8267 126.966 59.08C126.526 59.3333 126.166 59.7067 125.886 60.2C125.62 60.68 125.486 61.2533 125.486 61.92C125.486 62.5867 125.62 63.1733 125.886 63.68C126.166 64.1733 126.526 64.5533 126.966 64.82C127.42 65.0867 127.9 65.22 128.406 65.22C128.926 65.22 129.413 65.0933 129.866 64.84C130.32 64.5733 130.68 64.2 130.946 63.72C131.213 63.2267 131.346 62.64 131.346 61.96ZM138.801 52.7V67.5H136.001V52.7H138.801ZM151.733 67.5L148.653 62.06H147.333V67.5H144.533V53.54H149.773C150.853 53.54 151.773 53.7333 152.533 54.12C153.293 54.4933 153.86 55.0067 154.233 55.66C154.62 56.3 154.813 57.02 154.813 57.82C154.813 58.74 154.546 59.5733 154.013 60.32C153.48 61.0533 152.686 61.56 151.633 61.84L154.973 67.5H151.733ZM147.333 59.96H149.673C150.433 59.96 151 59.78 151.373 59.42C151.746 59.0467 151.933 58.5333 151.933 57.88C151.933 57.24 151.746 56.7467 151.373 56.4C151 56.04 150.433 55.86 149.673 55.86H147.333V59.96ZM166.746 61.72C166.746 62.12 166.719 62.48 166.666 62.8H158.566C158.632 63.6 158.912 64.2267 159.406 64.68C159.899 65.1333 160.506 65.36 161.226 65.36C162.266 65.36 163.006 64.9133 163.446 64.02H166.466C166.146 65.0867 165.532 65.9667 164.626 66.66C163.719 67.34 162.606 67.68 161.286 67.68C160.219 67.68 159.259 67.4467 158.406 66.98C157.566 66.5 156.906 65.8267 156.426 64.96C155.959 64.0933 155.726 63.0933 155.726 61.96C155.726 60.8133 155.959 59.8067 156.426 58.94C156.892 58.0733 157.546 57.4067 158.386 56.94C159.226 56.4733 160.192 56.24 161.286 56.24C162.339 56.24 163.279 56.4667 164.106 56.92C164.946 57.3733 165.592 58.02 166.046 58.86C166.512 59.6867 166.746 60.64 166.746 61.72ZM163.846 60.92C163.832 60.2 163.572 59.6267 163.066 59.2C162.559 58.76 161.939 58.54 161.206 58.54C160.512 58.54 159.926 58.7533 159.446 59.18C158.979 59.5933 158.692 60.1733 158.586 60.92H163.846ZM170.689 58.02C171.049 57.5133 171.543 57.0933 172.169 56.76C172.809 56.4133 173.536 56.24 174.349 56.24C175.296 56.24 176.149 56.4733 176.909 56.94C177.683 57.4067 178.289 58.0733 178.729 58.94C179.183 59.7933 179.409 60.7867 179.409 61.92C179.409 63.0533 179.183 64.06 178.729 64.94C178.289 65.8067 177.683 66.48 176.909 66.96C176.149 67.44 175.296 67.68 174.349 67.68C173.536 67.68 172.816 67.5133 172.189 67.18C171.576 66.8467 171.076 66.4267 170.689 65.92V72.78H167.889V56.42H170.689V58.02ZM176.549 61.92C176.549 61.2533 176.409 60.68 176.129 60.2C175.863 59.7067 175.503 59.3333 175.049 59.08C174.609 58.8267 174.129 58.7 173.609 58.7C173.103 58.7 172.623 58.8333 172.169 59.1C171.729 59.3533 171.369 59.7267 171.089 60.22C170.823 60.7133 170.689 61.2933 170.689 61.96C170.689 62.6267 170.823 63.2067 171.089 63.7C171.369 64.1933 171.729 64.5733 172.169 64.84C172.623 65.0933 173.103 65.22 173.609 65.22C174.129 65.22 174.609 65.0867 175.049 64.82C175.503 64.5533 175.863 64.1733 176.129 63.68C176.409 63.1867 176.549 62.6 176.549 61.92ZM185.464 67.68C184.397 67.68 183.437 67.4467 182.584 66.98C181.731 66.5 181.057 65.8267 180.564 64.96C180.084 64.0933 179.844 63.0933 179.844 61.96C179.844 60.8267 180.091 59.8267 180.584 58.96C181.091 58.0933 181.777 57.4267 182.644 56.96C183.511 56.48 184.477 56.24 185.544 56.24C186.611 56.24 187.577 56.48 188.444 56.96C189.311 57.4267 189.991 58.0933 190.484 58.96C190.991 59.8267 191.244 60.8267 191.244 61.96C191.244 63.0933 190.984 64.0933 190.464 64.96C189.957 65.8267 189.264 66.5 188.384 66.98C187.517 67.4467 186.544 67.68 185.464 67.68ZM185.464 65.24C185.971 65.24 186.444 65.12 186.884 64.88C187.337 64.6267 187.697 64.2533 187.964 63.76C188.231 63.2667 188.364 62.6667 188.364 61.96C188.364 60.9067 188.084 60.1 187.524 59.54C186.977 58.9667 186.304 58.68 185.504 58.68C184.704 58.68 184.031 58.9667 183.484 59.54C182.951 60.1 182.684 60.9067 182.684 61.96C182.684 63.0133 182.944 63.8267 183.464 64.4C183.997 64.96 184.664 65.24 185.464 65.24ZM195.198 58.14C195.558 57.5533 196.025 57.0933 196.598 56.76C197.185 56.4267 197.851 56.26 198.598 56.26V59.2H197.858C196.978 59.2 196.311 59.4067 195.858 59.82C195.418 60.2333 195.198 60.9533 195.198 61.98V67.5H192.398V56.42H195.198V58.14ZM202.844 58.72V64.08C202.844 64.4533 202.931 64.7267 203.104 64.9C203.291 65.06 203.597 65.14 204.024 65.14H205.324V67.5H203.564C201.204 67.5 200.024 66.3533 200.024 64.06V58.72H198.704V56.42H200.024V53.68H202.844V56.42H205.324V58.72H202.844Z" fill="#066348"/>
<rect x="890" y="37" width="130" height="47" rx="4.5" fill="#F5F5F5"/>
<path d="M1002.61 66.4444L995 56H1010.22L1002.61 66.4444Z" fill="#9D9D9D"/>
<path d="M897 68.55C897 70.505 898.495 72 900.45 72H916.55C918.505 72 920 70.505 920 68.55V59.35H897V68.55ZM916.55 51.3H914.25V50.15C914.25 49.46 913.79 49 913.1 49C912.41 49 911.95 49.46 911.95 50.15V51.3H905.05V50.15C905.05 49.46 904.59 49 903.9 49C903.21 49 902.75 49.46 902.75 50.15V51.3H900.45C898.495 51.3 897 52.795 897 54.75V57.05H920V54.75C920 52.795 918.505 51.3 916.55 51.3Z" fill="#9D9D9D"/>
<path d="M930.214 64.21C931.366 63.214 932.272 62.398 932.932 61.762C933.604 61.114 934.162 60.442 934.606 59.746C935.05 59.05 935.272 58.354 935.272 57.658C935.272 56.938 935.098 56.374 934.75 55.966C934.414 55.558 933.88 55.354 933.148 55.354C932.44 55.354 931.888 55.582 931.492 56.038C931.108 56.482 930.904 57.082 930.88 57.838H928.9C928.936 56.47 929.344 55.426 930.124 54.706C930.916 53.974 931.918 53.608 933.13 53.608C934.438 53.608 935.458 53.968 936.19 54.688C936.934 55.408 937.306 56.368 937.306 57.568C937.306 58.432 937.084 59.266 936.64 60.07C936.208 60.862 935.686 61.576 935.074 62.212C934.474 62.836 933.706 63.562 932.77 64.39L931.96 65.11H937.666V66.82H928.918V65.326L930.214 64.21ZM939.469 60.268C939.469 58.192 939.817 56.572 940.513 55.408C941.221 54.232 942.433 53.644 944.149 53.644C945.865 53.644 947.071 54.232 947.767 55.408C948.475 56.572 948.829 58.192 948.829 60.268C948.829 62.368 948.475 64.012 947.767 65.2C947.071 66.376 945.865 66.964 944.149 66.964C942.433 66.964 941.221 66.376 940.513 65.2C939.817 64.012 939.469 62.368 939.469 60.268ZM946.813 60.268C946.813 59.296 946.747 58.474 946.615 57.802C946.495 57.13 946.243 56.584 945.859 56.164C945.475 55.732 944.905 55.516 944.149 55.516C943.393 55.516 942.823 55.732 942.439 56.164C942.055 56.584 941.797 57.13 941.665 57.802C941.545 58.474 941.485 59.296 941.485 60.268C941.485 61.276 941.545 62.122 941.665 62.806C941.785 63.49 942.037 64.042 942.421 64.462C942.817 64.882 943.393 65.092 944.149 65.092C944.905 65.092 945.475 64.882 945.859 64.462C946.255 64.042 946.513 63.49 946.633 62.806C946.753 62.122 946.813 61.276 946.813 60.268ZM952.134 64.21C953.286 63.214 954.192 62.398 954.852 61.762C955.524 61.114 956.082 60.442 956.526 59.746C956.97 59.05 957.192 58.354 957.192 57.658C957.192 56.938 957.018 56.374 956.67 55.966C956.334 55.558 955.8 55.354 955.068 55.354C954.36 55.354 953.808 55.582 953.412 56.038C953.028 56.482 952.824 57.082 952.8 57.838H950.82C950.856 56.47 951.264 55.426 952.044 54.706C952.836 53.974 953.838 53.608 955.05 53.608C956.358 53.608 957.378 53.968 958.11 54.688C958.854 55.408 959.226 56.368 959.226 57.568C959.226 58.432 959.004 59.266 958.56 60.07C958.128 60.862 957.606 61.576 956.994 62.212C956.394 62.836 955.626 63.562 954.69 64.39L953.88 65.11H959.586V66.82H950.838V65.326L952.134 64.21ZM962.523 64.21C963.675 63.214 964.581 62.398 965.241 61.762C965.913 61.114 966.471 60.442 966.915 59.746C967.359 59.05 967.581 58.354 967.581 57.658C967.581 56.938 967.407 56.374 967.059 55.966C966.723 55.558 966.189 55.354 965.457 55.354C964.749 55.354 964.197 55.582 963.801 56.038C963.417 56.482 963.213 57.082 963.189 57.838H961.209C961.245 56.47 961.653 55.426 962.433 54.706C963.225 53.974 964.227 53.608 965.439 53.608C966.747 53.608 967.767 53.968 968.499 54.688C969.243 55.408 969.615 56.368 969.615 57.568C969.615 58.432 969.393 59.266 968.949 60.07C968.517 60.862 967.995 61.576 967.383 62.212C966.783 62.836 966.015 63.562 965.079 64.39L964.269 65.11H969.975V66.82H961.227V65.326L962.523 64.21Z" fill="#9D9D9D"/>
</g>
<defs>
<filter id="filter0_d_3969_13174" x="-1" y="0" width="1093" height="535" filterUnits="userSpaceOnUse" color-interpolation-filters="sRGB">
<feFlood flood-opacity="0" result="BackgroundImageFix"/>
<feColorMatrix in="SourceAlpha" type="matrix" values="0 0 0 0 0 0 0 0 0 0 0 0 0 0 0 0 0 0 127 0" result="hardAlpha"/>
<feOffset/>
<feGaussianBlur stdDeviation="13"/>
<feComposite in2="hardAlpha" operator="out"/>
<feColorMatrix type="matrix" values="0 0 0 0 0 0 0 0 0 0 0 0 0 0 0 0 0 0 0.04 0"/>
<feBlend mode="normal" in2="BackgroundImageFix" result="effect1_dropShadow_3969_13174"/>
<feBlend mode="normal" in="SourceGraphic" in2="effect1_dropShadow_3969_13174" result="shape"/>
</filter>
<filter id="filter1_f_3969_13174" x="70.7104" y="228.383" width="935.65" height="147.024" filterUnits="userSpaceOnUse" color-interpolation-filters="sRGB">
<feFlood flood-opacity="0" result="BackgroundImageFix"/>
<feBlend mode="normal" in="SourceGraphic" in2="BackgroundImageFix" result="shape"/>
<feGaussianBlur stdDeviation="5.32842" result="effect1_foregroundBlur_3969_13174"/>
</filter>
<filter id="filter2_f_3969_13174" x="60.1166" y="92.3864" width="971.896" height="272.211" filterUnits="userSpaceOnUse" color-interpolation-filters="sRGB">
<feFlood flood-opacity="0" result="BackgroundImageFix"/>
<feBlend mode="normal" in="SourceGraphic" in2="BackgroundImageFix" result="shape"/>
<feGaussianBlur stdDeviation="5.32842" result="effect1_foregroundBlur_3969_13174"/>
</filter>
</defs>
</svg>
