<svg width="161" height="161" viewBox="0 0 161 161" fill="none" xmlns="http://www.w3.org/2000/svg">
<path d="M160.85 85.4144C159.83 102.092 153.646 118.039 143.155 131.043C132.664 144.048 118.387 153.466 102.303 157.991C86.2185 162.517 69.1248 161.925 53.3921 156.298C37.6593 150.672 24.0672 140.289 14.5007 126.591C4.93412 112.892 -0.132783 96.5556 0.00264426 79.8475C0.138071 63.1395 5.46911 46.8876 15.2565 33.3457C25.0438 19.8037 38.8025 9.64281 54.6243 4.27205C70.4462 -1.0987 87.5472 -1.41315 103.556 3.37233L96.8466 25.8165C85.4965 22.4236 73.3719 22.6465 62.1542 26.4544C50.9364 30.2622 41.1816 37.4663 34.2423 47.0676C27.3031 56.6688 23.5234 68.1914 23.4274 80.0374C23.3314 91.8834 26.9238 103.466 33.7065 113.178C40.4892 122.891 50.126 130.252 61.2805 134.241C72.435 138.23 84.5544 138.65 95.958 135.441C107.362 132.233 117.484 125.555 124.922 116.335C132.36 107.115 136.745 95.8086 137.468 83.9843L160.85 85.4144Z" fill="#35393E"/>
</svg>
