<svg width="74" height="74" viewBox="0 0 74 74" fill="none" xmlns="http://www.w3.org/2000/svg">
<rect x="10" y="9.97892" width="54.0422" height="54.0422" rx="27.0211" fill="#054834"/>
<path d="M37.3007 35.3204C32.8169 35.3204 31.9083 28.5256 31.9083 28.5256C31.375 24.99 32.9947 21 37.2414 21C41.5079 21 43.1276 24.99 42.5943 28.5256C42.5943 28.5256 41.7845 35.3204 37.3007 35.3204ZM37.3007 40.3968L42.6733 36.8019C47.3941 36.8019 51.6014 41.4042 51.6014 45.7497V50.668C51.6014 50.668 44.3918 52.9 37.3007 52.9C30.0911 52.9 23 50.668 23 50.668V45.7497C23 41.3054 26.832 36.9006 31.8293 36.9006L37.3007 40.3968Z" fill="white"/>
<rect x="5.17481" y="5.15373" width="63.6925" height="63.6925" rx="31.8463" stroke="#054834" stroke-opacity="0.18" stroke-width="9.65039"/>
</svg>
