<svg width="74" height="74" viewBox="0 0 74 74" fill="none" xmlns="http://www.w3.org/2000/svg">
<rect x="10" y="9.97892" width="54.0422" height="54.0422" rx="27.0211" fill="#054834"/>
<path d="M53.75 40.9063C53.75 41.75 52.0625 42.3125 50.0937 42.5938C48.8281 40.2031 46.2969 38.375 43.3438 37.1094C43.625 36.6875 43.9063 36.4063 44.1875 35.9844H45.3125C49.6719 35.8438 53.75 38.5156 53.75 40.9063ZM29.5625 35.8438H28.4375C24.0781 35.8438 20 38.5156 20 40.9063C20 41.75 21.6875 42.3125 23.6562 42.5938C24.9219 40.2031 27.4531 38.375 30.4063 37.1094L29.5625 35.8438ZM36.875 37.25C39.9688 37.25 42.5 34.7188 42.5 31.625C42.5 28.5312 39.9688 26 36.875 26C33.7812 26 31.25 28.5312 31.25 31.625C31.25 34.7188 33.7812 37.25 36.875 37.25ZM36.875 38.6562C31.1094 38.6562 25.625 42.3125 25.625 45.6875C25.625 48.5 36.875 48.5 36.875 48.5C36.875 48.5 48.125 48.5 48.125 45.6875C48.125 42.3125 42.6406 38.6562 36.875 38.6562ZM44.8906 34.4375H45.3125C47.7031 34.4375 49.5312 32.6094 49.5312 30.2188C49.5312 27.8281 47.7031 26 45.3125 26C44.6094 26 44.0469 26.1406 43.4844 26.4219C44.6094 27.8281 45.3125 29.6563 45.3125 31.625C45.3125 32.6094 45.1719 33.5937 44.8906 34.4375ZM28.4375 34.4375H28.8594C28.5781 33.5937 28.4375 32.6094 28.4375 31.625C28.4375 29.6563 29.1406 27.8281 30.2656 26.4219C29.7031 26.1406 29.1406 26 28.4375 26C26.0469 26 24.2188 27.8281 24.2188 30.2188C24.2188 32.6094 26.0469 34.4375 28.4375 34.4375Z" fill="white"/>
<rect x="5.17481" y="5.15373" width="63.6925" height="63.6925" rx="31.8463" stroke="#054834" stroke-opacity="0.18" stroke-width="9.65039"/>
</svg>
