<svg width="27" height="36" viewBox="0 0 27 36" fill="none" xmlns="http://www.w3.org/2000/svg">
<path fill-rule="evenodd" clip-rule="evenodd" d="M3.98077 0H22.2404C24.4389 0 26.2212 1.78225 26.2212 3.98077V21.4264C26.2212 21.8838 25.8652 22.2622 25.4087 22.2901L16.75 22.8203C14.9238 22.9321 13.5 24.4457 13.5 26.2753V32.7115C13.5 33.5718 12.8026 34.2692 11.9423 34.2692H3.98077C1.78225 34.2692 0 32.487 0 30.2885V3.98077C0 1.78225 1.78225 0 3.98077 0ZM8.03866 4.379C8.541 4.22644 9.08427 4.42365 9.37452 4.85902L14.5803 12.6621H16.7199V5.51764C16.7199 4.85902 17.252 4.3269 17.9106 4.3269C18.5693 4.3269 19.1014 4.85902 19.1014 5.51764V12.6621H20.2921C20.9507 12.6621 21.4828 13.1942 21.4828 13.8528C21.4828 14.5114 20.9507 15.0436 20.2921 15.0436H19.1014V19.8102C19.1014 20.3349 18.759 20.7963 18.2567 20.9489C17.7543 21.1014 17.2111 20.9042 16.9208 20.4689L13.304 15.0436H9.57545V19.8065C9.57545 20.4651 9.04334 20.9972 8.38472 20.9972C7.72609 20.9972 7.19398 20.4651 7.19398 19.8065V15.0436H6.00324C5.34461 15.0436 4.8125 14.5114 4.8125 13.8528C4.8125 13.1942 5.34461 12.6621 6.00324 12.6621H7.19398V5.51764C7.19398 4.99297 7.53631 4.53156 8.03866 4.379ZM16.7199 15.0436H16.1654L16.7199 15.8733V15.0436ZM9.57545 12.6621H11.7151L9.57545 9.4508V12.6621Z" fill="white"/>
<path d="M24.5242 24.1344L17.7331 24.3792C16.3366 24.4295 15.2305 25.5762 15.2305 26.9737V33.8432C15.2305 34.6235 16.1819 35.0053 16.7212 34.4414L25.1807 25.5974C25.7176 25.0361 25.3004 24.1064 24.5242 24.1344Z" fill="white"/>
</svg>
