<svg width="21" height="20" viewBox="0 0 21 20" fill="none" xmlns="http://www.w3.org/2000/svg">
<path d="M2.15306 2.58921C2.15306 1.95272 2.40591 1.3423 2.85597 0.892238C3.30603 0.442174 3.91645 0.189331 4.55294 0.189331L11.7526 0.189331C12.3891 0.189331 12.9995 0.442174 13.4495 0.892238C13.8996 1.3423 14.1524 1.95272 14.1524 2.58921V12.1887C14.7889 12.1887 15.3993 12.4416 15.8494 12.8916C16.2995 13.3417 16.5523 13.9521 16.5523 14.5886V15.1886C16.5523 15.3477 16.6155 15.5003 16.728 15.6128C16.8406 15.7253 16.9932 15.7885 17.1523 15.7885C17.3114 15.7885 17.464 15.7253 17.5765 15.6128C17.689 15.5003 17.7523 15.3477 17.7523 15.1886V9.78884H17.1523C16.9932 9.78884 16.8406 9.72563 16.728 9.61311C16.6155 9.50059 16.5523 9.34799 16.5523 9.18887V5.43906C16.5523 5.27994 16.6155 5.12733 16.728 5.01482C16.8406 4.9023 16.9932 4.83909 17.1523 4.83909H18.9462C18.933 4.26792 18.8826 3.76635 18.705 3.37277C18.6099 3.14392 18.4443 2.95139 18.2322 2.82319C18.0114 2.6912 17.6755 2.58921 17.1523 2.58921C16.9932 2.58921 16.8406 2.526 16.728 2.41348C16.6155 2.30096 16.5523 2.14836 16.5523 1.98924C16.5523 1.83012 16.6155 1.67751 16.728 1.565C16.8406 1.45248 16.9932 1.38927 17.1523 1.38927C17.8291 1.38927 18.393 1.52126 18.8466 1.79245C19.3062 2.06603 19.6074 2.45361 19.7994 2.88079C20.1533 3.66675 20.1521 4.6387 20.1521 5.37786V9.18887C20.1521 9.34799 20.0889 9.50059 19.9764 9.61311C19.8639 9.72563 19.7113 9.78884 19.5522 9.78884H18.9522V15.1886C18.9522 15.6659 18.7626 16.1237 18.425 16.4613C18.0875 16.7988 17.6297 16.9885 17.1523 16.9885C16.6749 16.9885 16.2171 16.7988 15.8796 16.4613C15.542 16.1237 15.3524 15.6659 15.3524 15.1886V14.5886C15.3524 14.2703 15.226 13.9651 15.0009 13.7401C14.7759 13.5151 14.4707 13.3886 14.1524 13.3886V18.1884H14.7524C14.9115 18.1884 15.0641 18.2516 15.1767 18.3641C15.2892 18.4766 15.3524 18.6292 15.3524 18.7884C15.3524 18.9475 15.2892 19.1001 15.1767 19.2126C15.0641 19.3251 14.9115 19.3883 14.7524 19.3883H1.55309C1.39397 19.3883 1.24137 19.3251 1.12885 19.2126C1.01634 19.1001 0.953125 18.9475 0.953125 18.7884C0.953125 18.6292 1.01634 18.4766 1.12885 18.3641C1.24137 18.2516 1.39397 18.1884 1.55309 18.1884H2.15306V2.58921ZM5.15291 2.58921C4.99379 2.58921 4.84118 2.65242 4.72867 2.76493C4.61615 2.87745 4.55294 3.03005 4.55294 3.18918V9.18887C4.55294 9.34799 4.61615 9.50059 4.72867 9.61311C4.84118 9.72563 4.99379 9.78884 5.15291 9.78884H11.1526C11.3117 9.78884 11.4643 9.72563 11.5768 9.61311C11.6894 9.50059 11.7526 9.34799 11.7526 9.18887V3.18918C11.7526 3.03005 11.6894 2.87745 11.5768 2.76493C11.4643 2.65242 11.3117 2.58921 11.1526 2.58921H5.15291Z" fill="white"/>
</svg>
