<svg width="31" height="31" viewBox="0 0 31 31" fill="none" xmlns="http://www.w3.org/2000/svg">
<path fill-rule="evenodd" clip-rule="evenodd" d="M11.7672 1.86027C11.5234 2.08085 11.2673 2.28733 11 2.47872C10.5381 2.78872 10.0188 3.00262 9.47321 3.11112C9.23606 3.15762 8.98806 3.17777 8.49361 3.21652C7.25206 3.31572 6.63051 3.36532 6.11281 3.54822C5.52086 3.75722 4.98322 4.09609 4.53933 4.53999C4.09544 4.98388 3.75656 5.52152 3.54756 6.11347C3.36466 6.63117 3.31506 7.25272 3.21586 8.49427C3.19895 8.82251 3.16377 9.14955 3.11046 9.47387C3.00196 10.0195 2.78806 10.5387 2.47806 11.0006C2.34321 11.2021 2.18201 11.3912 1.85961 11.7679C1.05206 12.7165 0.647512 13.1908 0.410362 13.6868C-0.136787 14.8338 -0.136787 16.1668 0.410362 17.3138C0.647512 17.8098 1.05206 18.2841 1.85961 19.2327C2.18201 19.6093 2.34321 19.7984 2.47806 19.9999C2.78806 20.4618 3.00196 20.9811 3.11046 21.5267C3.15696 21.7638 3.17711 22.0118 3.21586 22.5063C3.31506 23.7478 3.36466 24.3694 3.54756 24.8871C3.75656 25.479 4.09544 26.0167 4.53933 26.4605C4.98322 26.9044 5.52086 27.2433 6.11281 27.4523C6.63051 27.6352 7.25206 27.6848 8.49361 27.784C8.98806 27.8228 9.23606 27.8429 9.47321 27.8894C10.0188 27.9979 10.5381 28.2134 11 28.5218C11.2015 28.6567 11.3906 28.8179 11.7672 29.1403C12.7158 29.9478 13.1901 30.3524 13.6861 30.5895C14.8331 31.1367 16.1661 31.1367 17.3131 30.5895C17.8091 30.3524 18.2834 29.9478 19.232 29.1403C19.6087 28.8179 19.7978 28.6567 19.9993 28.5218C20.4612 28.2118 20.9804 27.9979 21.526 27.8894C21.7632 27.8429 22.0112 27.8228 22.5056 27.784C23.7472 27.6848 24.3687 27.6352 24.8864 27.4523C25.4784 27.2433 26.016 26.9044 26.4599 26.4605C26.9038 26.0167 27.2427 25.479 27.4517 24.8871C27.6346 24.3694 27.6842 23.7478 27.7834 22.5063C27.8221 22.0118 27.8423 21.7638 27.8888 21.5267C27.9973 20.9811 28.2127 20.4618 28.5212 19.9999C28.656 19.7984 28.8172 19.6093 29.1396 19.2327C29.9472 18.2841 30.3517 17.8098 30.5889 17.3138C31.136 16.1668 31.136 14.8338 30.5889 13.6868C30.3517 13.1908 29.9472 12.7165 29.1396 11.7679C28.919 11.5241 28.7125 11.2679 28.5212 11.0006C28.2115 10.5385 27.9965 10.0196 27.8888 9.47387C27.8355 9.14954 27.8003 8.8225 27.7834 8.49427C27.6842 7.25272 27.6346 6.63117 27.4517 6.11347C27.2427 5.52152 26.9038 4.98388 26.4599 4.53999C26.016 4.09609 25.4784 3.75722 24.8864 3.54822C24.3687 3.36532 23.7472 3.31572 22.5056 3.21652C22.1774 3.19961 21.8503 3.16442 21.526 3.11112C20.9803 3.00337 20.4613 2.78843 19.9993 2.47872C19.7323 2.28693 19.4761 2.08046 19.232 1.86027C18.2834 1.05272 17.8091 0.648169 17.3131 0.411019C16.7469 0.140359 16.1272 -0.00012207 15.4996 -0.00012207C14.872 -0.00012207 14.2524 0.140359 13.6861 0.411019C13.1901 0.648169 12.7158 1.05272 11.7672 1.86027ZM21.4377 9.56377C21.6737 9.80031 21.8063 10.1208 21.8063 10.455C21.8063 10.7892 21.6737 11.1097 21.4377 11.3463L11.3456 21.4399C11.2306 21.5657 11.0913 21.667 10.9361 21.7375C10.7809 21.808 10.613 21.8464 10.4426 21.8502C10.2722 21.854 10.1027 21.8233 9.94449 21.7599C9.78626 21.6964 9.64254 21.6015 9.52199 21.481C9.40145 21.3604 9.30658 21.2167 9.24312 21.0585C9.17966 20.9003 9.14893 20.7308 9.15277 20.5604C9.15661 20.39 9.19496 20.2221 9.26548 20.0669C9.33601 19.9117 9.43725 19.7724 9.56311 19.6574L19.6536 9.56532C19.8902 9.32926 20.2107 9.19668 20.5449 9.19668C20.879 9.19668 21.1996 9.32926 21.4361 9.56532L21.4377 9.56377ZM21.3865 19.7054C21.3865 20.1514 21.2093 20.5792 20.8939 20.8946C20.5785 21.21 20.1508 21.3872 19.7048 21.3872C19.2587 21.3872 18.831 21.21 18.5156 20.8946C18.2002 20.5792 18.023 20.1514 18.023 19.7054C18.023 19.2594 18.2002 18.8316 18.5156 18.5162C18.831 18.2008 19.2587 18.0237 19.7048 18.0237C20.1508 18.0237 20.5785 18.2008 20.8939 18.5162C21.2093 18.8316 21.3865 19.2594 21.3865 19.7054ZM11.296 12.9784C11.5169 12.9784 11.7355 12.9349 11.9396 12.8504C12.1436 12.7659 12.329 12.642 12.4852 12.4858C12.6414 12.3297 12.7652 12.1443 12.8497 11.9402C12.9343 11.7362 12.9778 11.5175 12.9778 11.2967C12.9778 11.0758 12.9343 10.8571 12.8497 10.6531C12.7652 10.4491 12.6414 10.2637 12.4852 10.1075C12.329 9.95133 12.1436 9.82745 11.9396 9.74293C11.7355 9.65842 11.5169 9.61492 11.296 9.61492C10.85 9.61492 10.4222 9.7921 10.1068 10.1075C9.79144 10.4229 9.61426 10.8506 9.61426 11.2967C9.61426 11.7427 9.79144 12.1705 10.1068 12.4858C10.4222 12.8012 10.85 12.9784 11.296 12.9784Z" fill="white"/>
</svg>
