<svg width="19" height="19" viewBox="0 0 19 19" fill="none" xmlns="http://www.w3.org/2000/svg">
<path fill-rule="evenodd" clip-rule="evenodd" d="M9.72093 1.39981C9.31442 1.33088 8.75944 1.32558 7.75907 1.32558C6.06498 1.32558 4.86046 1.32735 3.94846 1.4493C3.05414 1.5686 2.5407 1.79395 2.16688 2.16688C1.79307 2.5407 1.5686 3.05326 1.4493 3.94228C1.32735 4.85074 1.32558 6.0473 1.32558 7.73344V11.2683C1.32558 12.9527 1.32735 14.1493 1.4493 15.0577C1.5686 15.9467 1.79307 16.4593 2.16688 16.834C2.5407 17.2069 3.05326 17.4314 3.94228 17.5507C4.85074 17.6735 6.0473 17.6744 7.73256 17.6744H11.2674C12.9527 17.6744 14.1501 17.6727 15.0586 17.5507C15.9467 17.4314 16.4593 17.2069 16.8331 16.8331C17.2069 16.4593 17.4314 15.9467 17.5507 15.0577C17.6727 14.1501 17.6744 12.9527 17.6744 11.2674V10.8813C17.6744 9.52386 17.6656 8.88051 17.5207 8.39535H14.7546C13.7533 8.39535 12.9359 8.39535 12.289 8.30874C11.6147 8.21772 11.0297 8.02153 10.5622 7.55405C10.0947 7.08656 9.89856 6.50242 9.80753 5.82637C9.72093 5.18126 9.72093 4.36293 9.72093 3.36079V1.39981ZM11.0465 2.08558V3.31395C11.0465 4.37442 11.0483 5.1026 11.1216 5.64963C11.1923 6.17809 11.3196 6.43702 11.4999 6.61642C11.6793 6.7967 11.9382 6.92395 12.4667 6.99465C13.0137 7.068 13.7419 7.06977 14.8023 7.06977H16.5874C16.2483 6.74685 15.9036 6.42984 15.5535 6.11888L12.0548 2.97019C11.7248 2.66849 11.3886 2.37356 11.0465 2.08558ZM7.88721 0C9.11116 0 9.90209 5.26739e-08 10.6294 0.278372C11.3567 0.557628 11.9417 1.08433 12.8475 1.9L12.9421 1.98484L16.4399 5.13353L16.5503 5.23251C17.5967 6.17367 18.2736 6.78256 18.6368 7.59912C19.0009 8.41567 19.0009 9.32591 19 10.7328V11.3169C19 12.9412 19 14.2279 18.8648 15.2345C18.7252 16.2702 18.4318 17.1088 17.7707 17.7707C17.1088 18.4318 16.2702 18.7252 15.2345 18.8648C14.227 19 12.9412 19 11.3169 19H7.68307C6.05879 19 4.77209 19 3.76553 18.8648C2.72981 18.7252 1.89116 18.4318 1.22926 17.7707C0.568233 17.1088 0.274837 16.2702 0.135209 15.2345C0 14.227 0 12.9412 0 11.3169V7.68307C0 6.05879 0 4.77209 0.135209 3.76554C0.274837 2.72981 0.568233 1.89116 1.22926 1.22926C1.89205 0.567349 2.73247 0.274837 3.7726 0.135209C4.78358 0 6.07646 0 7.70958 0H7.88721Z" fill="white"/>
</svg>
