<svg width="29" height="33" viewBox="0 0 29 33" fill="none" xmlns="http://www.w3.org/2000/svg">
<path d="M14.3788 15.0804C9.89503 15.0804 8.98642 8.28564 8.98642 8.28564C8.45311 4.74998 10.0728 0.76001 14.3196 0.76001C18.5861 0.76001 20.2057 4.74998 19.6724 8.28564C19.6724 8.28564 18.8626 15.0804 14.3788 15.0804ZM14.3788 20.1568L19.7514 16.5619C24.4722 16.5619 28.6795 21.1642 28.6795 25.5097V30.428C28.6795 30.428 21.4699 32.66 14.3788 32.66C7.16921 32.66 0.078125 30.428 0.078125 30.428V25.5097C0.078125 21.0654 3.91008 16.6606 8.90741 16.6606L14.3788 20.1568Z" fill="white"/>
</svg>
