<svg width="34" height="23" viewBox="0 0 34 23" fill="none" xmlns="http://www.w3.org/2000/svg">
<path d="M33.75 14.9063C33.75 15.75 32.0625 16.3125 30.0938 16.5938C28.8281 14.2031 26.2969 12.375 23.3438 11.1094C23.625 10.6875 23.9063 10.4063 24.1875 9.98438H25.3125C29.6719 9.84375 33.75 12.5156 33.75 14.9063ZM9.5625 9.84375H8.4375C4.07812 9.84375 0 12.5156 0 14.9063C0 15.75 1.6875 16.3125 3.65625 16.5938C4.92188 14.2031 7.45313 12.375 10.4062 11.1094L9.5625 9.84375ZM16.875 11.25C19.9688 11.25 22.5 8.71875 22.5 5.625C22.5 2.53125 19.9688 0 16.875 0C13.7812 0 11.25 2.53125 11.25 5.625C11.25 8.71875 13.7812 11.25 16.875 11.25ZM16.875 12.6562C11.1094 12.6562 5.625 16.3125 5.625 19.6875C5.625 22.5 16.875 22.5 16.875 22.5C16.875 22.5 28.125 22.5 28.125 19.6875C28.125 16.3125 22.6406 12.6562 16.875 12.6562ZM24.8906 8.4375H25.3125C27.7031 8.4375 29.5312 6.60938 29.5312 4.21875C29.5312 1.82812 27.7031 0 25.3125 0C24.6094 0 24.0469 0.140625 23.4844 0.421875C24.6094 1.82813 25.3125 3.65625 25.3125 5.625C25.3125 6.60938 25.1719 7.59375 24.8906 8.4375ZM8.4375 8.4375H8.85938C8.57812 7.59375 8.4375 6.60938 8.4375 5.625C8.4375 3.65625 9.14062 1.82813 10.2656 0.421875C9.70312 0.140625 9.14062 0 8.4375 0C6.04688 0 4.21875 1.82812 4.21875 4.21875C4.21875 6.60938 6.04688 8.4375 8.4375 8.4375Z" fill="white"/>
</svg>
