<svg width="29" height="28" viewBox="0 0 29 28" fill="none" xmlns="http://www.w3.org/2000/svg">
<path d="M19.4844 16.2148C20.1242 16.2148 20.6533 16.0057 21.0717 15.5873C21.49 15.1689 21.6992 14.6398 21.6992 14C21.6992 13.3602 21.49 12.831 21.0717 12.4127C20.6533 11.9943 20.1242 11.7852 19.4844 11.7852C18.8445 11.7852 18.3154 11.9943 17.8971 12.4127C17.4787 12.831 17.2695 13.3602 17.2695 14C17.2695 14.6398 17.4787 15.1689 17.8971 15.5873C18.3154 16.0057 18.8445 16.2148 19.4844 16.2148ZM15.0547 21.3828C14.2426 21.3828 13.5476 21.0939 12.9698 20.5161C12.391 19.9372 12.1016 19.2418 12.1016 18.4297V9.57031C12.1016 8.7582 12.391 8.06274 12.9698 7.48393C13.5476 6.9061 14.2426 6.61718 15.0547 6.61718H25.3906C26.2027 6.61718 26.8982 6.9061 27.477 7.48393C28.0548 8.06274 28.3437 8.7582 28.3437 9.57031V18.4297C28.3437 19.2418 28.0548 19.9372 27.477 20.5161C26.8982 21.0939 26.2027 21.3828 25.3906 21.3828H15.0547ZM3.24219 27.289C2.43008 27.289 1.73462 27.0001 1.1558 26.4223C0.577976 25.8435 0.289062 25.148 0.289062 24.3359V3.66406C0.289062 2.85195 0.577976 2.15649 1.1558 1.57768C1.73462 0.999851 2.43008 0.710938 3.24219 0.710938H23.9141C24.7262 0.710938 25.4216 0.999851 26.0004 1.57768C26.5783 2.15649 26.8672 2.85195 26.8672 3.66406H15.0547C13.3074 3.66406 11.8865 4.21137 10.7918 5.306C9.69624 6.40161 9.14843 7.82304 9.14843 9.57031V18.4297C9.14843 20.1769 9.69624 21.5979 10.7918 22.6925C11.8865 23.7881 13.3074 24.3359 15.0547 24.3359H26.8672C26.8672 25.148 26.5783 25.8435 26.0004 26.4223C25.4216 27.0001 24.7262 27.289 23.9141 27.289H3.24219Z" fill="white"/>
</svg>
